<?xml version="1.0" encoding="UTF-8"?>
<svg xmlns="http://www.w3.org/2000/svg" viewBox="0 0 3477.6 3477.6" width="200" height="200">
  <path d="M621 0H1242C1358 0 1449 91 1449 207H1656C1656 91 1747 0 1863 0H2277C2393 0 2484 91 2484 207C2600 207 2691 298 2691 414C2807 414 2898 505 2898 621V1656C2898 1772 2807 1863 2691 1863C2691 1979 2600 2070 2484 2070C2484 2186 2393 2277 2277 2277C2277 2393 2186 2484 2070 2484C1954 2484 1863 2393 1863 2277H1656V2484C1772 2484 1863 2575 1863 2691C1863 2807 1772 2898 1656 2898C1540 2898 1449 2807 1449 2691V2277C1449 2393 1358 2484 1242 2484H828C712 2484 621 2393 621 2277C505 2277 414 2186 414 2070C298 2070 207 1979 207 1863C91 1863 0 1772 0 1656V621C0 505 91 414 207 414C207 298 298 207 414 207C414 91 505 0 621 0ZM1242 207H621C621 323 530 414 414 414C414 530 323 621 207 621V1656C323 1656 414 1747 414 1863C530 1863 621 1954 621 2070C737 2070 828 2161 828 2277H1242C1242 2161 1333 2070 1449 2070H1863C1979 2070 2070 2161 2070 2277C2070 2161 2161 2070 2277 2070C2277 1954 2368 1863 2484 1863C2484 1747 2575 1656 2691 1656V621C2575 621 2484 530 2484 414C2368 414 2277 323 2277 207H1863C1863 323 1772 414 1656 414H1449C1333 414 1242 323 1242 207ZM828 1035H1035C1151 1035 1242 1126 1242 1242C1242 1358 1151 1449 1035 1449C1151 1449 1242 1540 1242 1656C1242 1772 1151 1863 1035 1863H828C828 1747 919 1656 1035 1656C919 1656 828 1565 828 1449C828 1333 919 1242 1035 1242C919 1242 828 1151 828 1035Z" fill="black" transform="translate(289.8, 3187.8) scale(1, -1)"/>
</svg>