<?xml version="1.0" encoding="UTF-8"?>
<svg xmlns="http://www.w3.org/2000/svg" viewBox="0 0 3063.6 3477.6" width="200" height="200">
  <path d="M1242 0C1358 0 1449 91 1449 207H2484C2484 323 2393 414 2277 414C2277 530 2186 621 2070 621H414C298 621 207 530 207 414C91 414 0 323 0 207H1035C1035 91 1126 0 1242 0ZM621 621C737 621 828 712 828 828C828 712 919 621 1035 621C1151 621 1242 712 1242 828C1242 712 1333 621 1449 621C1565 621 1656 712 1656 828C1656 712 1747 621 1863 621C1979 621 2070 712 2070 828V1035C1954 1035 1863 944 1863 828C1863 944 1772 1035 1656 1035C1540 1035 1449 944 1449 828C1449 944 1358 1035 1242 1035C1126 1035 1035 944 1035 828C1035 944 944 1035 828 1035C712 1035 621 944 621 828C621 944 530 1035 414 1035V828C414 712 505 621 621 621ZM414 1035H2070C2070 1151 1979 1242 1863 1242C1863 1358 1772 1449 1656 1449H828C712 1449 621 1358 621 1242C505 1242 414 1151 414 1035ZM1035 1449C1151 1449 1242 1540 1242 1656C1242 1540 1333 1449 1449 1449C1565 1449 1656 1540 1656 1656V1863C1540 1863 1449 1772 1449 1656C1449 1772 1358 1863 1242 1863C1126 1863 1035 1772 1035 1656C1035 1772 944 1863 828 1863V1656C828 1540 919 1449 1035 1449ZM828 1863H1656C1656 1979 1565 2070 1449 2070C1449 2186 1358 2277 1242 2277C1126 2277 1035 2186 1035 2070C919 2070 828 1979 828 1863ZM1242 2277C1358 2277 1449 2368 1449 2484V2691C1449 2807 1358 2898 1242 2898C1126 2898 1035 2807 1035 2691V2484C1035 2368 1126 2277 1242 2277Z" fill="black" transform="translate(289.8, 3187.8) scale(1, -1)"/>
</svg>