<?xml version="1.0" encoding="UTF-8"?>
<svg xmlns="http://www.w3.org/2000/svg" viewBox="0 0 3063.6 3477.6" width="200" height="200">
  <path d="M621 0C737 0 828 91 828 207V414C712 414 621 323 621 207C621 323 530 414 414 414V207C414 91 505 0 621 0ZM1863 0C1979 0 2070 91 2070 207V414C1954 414 1863 323 1863 207C1863 323 1772 414 1656 414V207C1656 91 1747 0 1863 0ZM207 414C323 414 414 505 414 621C414 505 505 414 621 414C737 414 828 505 828 621C828 505 919 414 1035 414C1151 414 1242 505 1242 621C1242 505 1333 414 1449 414C1565 414 1656 505 1656 621C1656 505 1747 414 1863 414C1979 414 2070 505 2070 621C2070 505 2161 414 2277 414C2393 414 2484 505 2484 621V828C2368 828 2277 737 2277 621C2277 737 2186 828 2070 828C1954 828 1863 737 1863 621C1863 737 1772 828 1656 828C1540 828 1449 737 1449 621C1449 737 1358 828 1242 828C1126 828 1035 737 1035 621C1035 737 944 828 828 828C712 828 621 737 621 621C621 737 530 828 414 828C298 828 207 737 207 621C207 737 116 828 0 828V621C0 505 91 414 207 414ZM207 828C323 828 414 919 414 1035V1242C298 1242 207 1151 207 1035C207 1151 116 1242 0 1242V1035C0 919 91 828 207 828ZM1449 828C1565 828 1656 919 1656 1035V1242C1540 1242 1449 1151 1449 1035C1449 1151 1358 1242 1242 1242V1035C1242 919 1333 828 1449 828ZM2277 828C2393 828 2484 919 2484 1035V1242C2368 1242 2277 1151 2277 1035C2277 1151 2186 1242 2070 1242V1035C2070 919 2161 828 2277 828ZM207 1242C323 1242 414 1333 414 1449C414 1333 505 1242 621 1242C737 1242 828 1333 828 1449C828 1333 919 1242 1035 1242C1151 1242 1242 1333 1242 1449C1242 1333 1333 1242 1449 1242C1565 1242 1656 1333 1656 1449C1656 1333 1747 1242 1863 1242C1979 1242 2070 1333 2070 1449C2070 1333 2161 1242 2277 1242C2393 1242 2484 1333 2484 1449V1656C2368 1656 2277 1565 2277 1449C2277 1565 2186 1656 2070 1656C1954 1656 1863 1565 1863 1449C1863 1565 1772 1656 1656 1656C1540 1656 1449 1565 1449 1449C1449 1565 1358 1656 1242 1656C1126 1656 1035 1565 1035 1449C1035 1565 944 1656 828 1656C712 1656 621 1565 621 1449C621 1565 530 1656 414 1656C298 1656 207 1565 207 1449C207 1565 116 1656 0 1656V1449C0 1333 91 1242 207 1242ZM621 1656C737 1656 828 1747 828 1863V2070C712 2070 621 1979 621 1863C621 1979 530 2070 414 2070V1863C414 1747 505 1656 621 1656ZM1863 1656C1979 1656 2070 1747 2070 1863V2070C1954 2070 1863 1979 1863 1863C1863 1979 1772 2070 1656 2070V1863C1656 1747 1747 1656 1863 1656ZM207 2070C323 2070 414 2161 414 2277C414 2161 505 2070 621 2070C737 2070 828 2161 828 2277C828 2161 919 2070 1035 2070C1151 2070 1242 2161 1242 2277C1242 2161 1333 2070 1449 2070C1565 2070 1656 2161 1656 2277C1656 2161 1747 2070 1863 2070C1979 2070 2070 2161 2070 2277C2070 2161 2161 2070 2277 2070C2393 2070 2484 2161 2484 2277V2484C2368 2484 2277 2393 2277 2277C2277 2393 2186 2484 2070 2484C1954 2484 1863 2393 1863 2277C1863 2393 1772 2484 1656 2484C1540 2484 1449 2393 1449 2277C1449 2393 1358 2484 1242 2484C1126 2484 1035 2393 1035 2277C1035 2393 944 2484 828 2484C712 2484 621 2393 621 2277C621 2393 530 2484 414 2484C298 2484 207 2393 207 2277C207 2393 116 2484 0 2484V2277C0 2161 91 2070 207 2070ZM207 2484C323 2484 414 2575 414 2691V2898C298 2898 207 2807 207 2691C207 2807 116 2898 0 2898V2691C0 2575 91 2484 207 2484ZM1035 2484C1151 2484 1242 2575 1242 2691V2898C1126 2898 1035 2807 1035 2691C1035 2807 944 2898 828 2898V2691C828 2575 919 2484 1035 2484ZM2277 2484C2393 2484 2484 2575 2484 2691V2898C2368 2898 2277 2807 2277 2691C2277 2807 2186 2898 2070 2898V2691C2070 2575 2161 2484 2277 2484Z" fill="black" transform="translate(289.8, 3187.8) scale(1, -1)"/>
</svg>