<?xml version="1.0" encoding="UTF-8"?>
<svg xmlns="http://www.w3.org/2000/svg" viewBox="0 0 5961.6 3891.6" width="200" height="200">
  <path d="M1449 0H2070C2186 0 2277 91 2277 207C2277 323 2368 414 2484 414H2691C2807 414 2898 505 2898 621H3933C3933 505 4024 414 4140 414H4347C4347 298 4438 207 4554 207H4761C4761 91 4852 0 4968 0V621C4968 737 4877 828 4761 828V1035C4761 1151 4670 1242 4554 1242C4554 1358 4463 1449 4347 1449H4140V1656C4140 1772 4049 1863 3933 1863V2070C3933 2186 3842 2277 3726 2277H3519V2484H3933C3933 2600 3842 2691 3726 2691C3842 2691 3933 2782 3933 2898H3519C3403 2898 3312 2807 3312 2691V2277H3105C2989 2277 2898 2186 2898 2070V1863C2782 1863 2691 1772 2691 1656C2575 1656 2484 1565 2484 1449V1242C2368 1242 2277 1151 2277 1035V828H2070V1035C2070 1151 1979 1242 1863 1242V1449C1863 1565 1772 1656 1656 1656H1035C919 1656 828 1565 828 1449C712 1449 621 1358 621 1242C505 1242 414 1151 414 1035C298 1035 207 944 207 828C91 828 0 737 0 621V207H1242C1242 91 1333 0 1449 0ZM1863 414C1863 530 1772 621 1656 621C1540 621 1449 712 1449 828C1449 712 1358 621 1242 621C1126 621 1035 712 1035 828C1035 712 944 621 828 621H207C323 621 414 712 414 828C530 828 621 919 621 1035C737 1035 828 1126 828 1242C944 1242 1035 1333 1035 1449H1656V1242C1656 1126 1747 1035 1863 1035V828C1863 712 1954 621 2070 621C2070 505 1979 414 1863 414ZM4347 828C4231 828 4140 919 4140 1035H3933C3817 1035 3726 1126 3726 1242C3610 1242 3519 1333 3519 1449C3519 1333 3428 1242 3312 1242C3196 1242 3105 1333 3105 1449C3105 1333 3014 1242 2898 1242C2898 1126 2807 1035 2691 1035H2484C2600 1035 2691 1126 2691 1242V1449C2807 1449 2898 1540 2898 1656C3014 1656 3105 1747 3105 1863V2070H3726V1863C3726 1747 3817 1656 3933 1656V1449C3933 1333 4024 1242 4140 1242H4347C4347 1126 4438 1035 4554 1035C4554 919 4463 828 4347 828Z" fill="black" transform="translate(496.8, 3394.8) scale(1, -1)"/>
</svg>