<?xml version="1.0" encoding="UTF-8"?>
<svg xmlns="http://www.w3.org/2000/svg" viewBox="0 0 3477.6 3477.6" width="200" height="200">
  <path d="M0 0H206C323 0 414 91 414 207C529 207 620 298 620 414C737 414 828 506 828 621C943 621 1034 712 1034 828C1151 828 1242 919 1242 1035C1357 1035 1449 1126 1449 1242C1565 1242 1656 1333 1656 1449H1449C1332 1449 1242 1358 1242 1242C1126 1242 1034 1151 1034 1035C918 1035 828 944 828 828C712 828 620 737 620 621C505 621 414 530 414 414C298 414 206 323 206 207C90 207 0 117 0 0ZM414 0H620C737 0 828 91 828 207C943 207 1034 298 1034 414C1151 414 1242 506 1242 621C1357 621 1449 712 1449 828C1565 828 1656 919 1656 1035C1771 1035 1863 1126 1863 1242H1656C1540 1242 1449 1151 1449 1035C1332 1035 1242 944 1242 828C1126 828 1034 737 1034 621C918 621 828 530 828 414C712 414 620 323 620 207C505 207 414 117 414 0ZM828 0H1034C1151 0 1242 91 1242 207C1357 207 1449 298 1449 414C1565 414 1656 506 1656 621C1771 621 1863 712 1863 828C1979 828 2070 919 2070 1035H1863C1746 1035 1656 944 1656 828C1540 828 1449 737 1449 621C1332 621 1242 530 1242 414C1126 414 1034 323 1034 207C918 207 828 117 828 0ZM1242 0H1449C1565 0 1656 91 1656 207C1771 207 1863 298 1863 414C1979 414 2070 506 2070 621C2186 621 2277 712 2277 828H2070C1954 828 1863 737 1863 621C1746 621 1656 530 1656 414C1540 414 1449 323 1449 207C1332 207 1242 117 1242 0ZM1656 0H1863C1979 0 2070 91 2070 207C2186 207 2277 298 2277 414C2393 414 2484 506 2484 621H2277C2160 621 2070 530 2070 414C1954 414 1863 323 1863 207C1746 207 1656 117 1656 0ZM2070 0H2277C2393 0 2484 91 2484 207C2600 207 2691 298 2691 414H2484C2368 414 2277 323 2277 207C2160 207 2070 117 2070 0ZM2484 0H2691C2807 0 2898 91 2898 207H2691C2574 207 2484 117 2484 0ZM2898 207V414C2898 530 2807 621 2691 621C2691 737 2600 828 2484 828C2484 944 2393 1035 2277 1035C2277 1151 2186 1242 2070 1242C2070 1358 1979 1449 1863 1449C1863 1565 1771 1656 1656 1656C1656 1772 1565 1863 1449 1863C1449 1979 1357 2070 1242 2070C1242 2187 1151 2277 1034 2277C1034 2393 943 2484 828 2484C828 2601 737 2691 620 2691C620 2807 529 2898 414 2898H206C206 2782 298 2691 414 2691C414 2575 505 2484 620 2484C620 2368 712 2277 828 2277C828 2161 918 2070 1034 2070C1034 1954 1126 1863 1242 1863C1242 1747 1332 1656 1449 1656C1449 1540 1540 1449 1656 1449C1656 1333 1746 1242 1863 1242C1863 1126 1954 1035 2070 1035C2070 919 2160 828 2277 828C2277 712 2368 621 2484 621C2484 506 2574 414 2691 414C2691 298 2782 207 2898 207ZM206 414C323 414 414 506 414 621C529 621 620 712 620 828C737 828 828 919 828 1035C943 1035 1034 1126 1034 1242C1151 1242 1242 1333 1242 1449C1357 1449 1449 1540 1449 1656H1242C1126 1656 1034 1565 1034 1449C918 1449 828 1358 828 1242C712 1242 620 1151 620 1035C505 1035 414 944 414 828C298 828 206 737 206 621C90 621 0 530 0 414V207C116 207 206 298 206 414ZM206 828C323 828 414 919 414 1035C529 1035 620 1126 620 1242C737 1242 828 1333 828 1449C943 1449 1034 1540 1034 1656C1151 1656 1242 1747 1242 1863H1034C918 1863 828 1772 828 1656C712 1656 620 1565 620 1449C505 1449 414 1358 414 1242C298 1242 206 1151 206 1035C90 1035 0 944 0 828V621C116 621 206 712 206 828ZM2898 621V828C2898 944 2807 1035 2691 1035C2691 1151 2600 1242 2484 1242C2484 1358 2393 1449 2277 1449C2277 1565 2186 1656 2070 1656C2070 1772 1979 1863 1863 1863C1863 1979 1771 2070 1656 2070C1656 2187 1565 2277 1449 2277C1449 2393 1357 2484 1242 2484C1242 2601 1151 2691 1034 2691C1034 2807 943 2898 828 2898H620C620 2782 712 2691 828 2691C828 2575 918 2484 1034 2484C1034 2368 1126 2277 1242 2277C1242 2161 1332 2070 1449 2070C1449 1954 1540 1863 1656 1863C1656 1747 1746 1656 1863 1656C1863 1540 1954 1449 2070 1449C2070 1333 2160 1242 2277 1242C2277 1126 2368 1035 2484 1035C2484 919 2574 828 2691 828C2691 712 2782 621 2898 621ZM206 1242C323 1242 414 1333 414 1449C529 1449 620 1540 620 1656C737 1656 828 1747 828 1863C943 1863 1034 1954 1034 2070H828C712 2070 620 1979 620 1863C505 1863 414 1772 414 1656C298 1656 206 1565 206 1449C90 1449 0 1358 0 1242V1035C116 1035 206 1126 206 1242ZM2898 1035V1242C2898 1358 2807 1449 2691 1449C2691 1565 2600 1656 2484 1656C2484 1772 2393 1863 2277 1863C2277 1979 2186 2070 2070 2070C2070 2187 1979 2277 1863 2277C1863 2393 1771 2484 1656 2484C1656 2601 1565 2691 1449 2691C1449 2807 1357 2898 1242 2898H1034C1034 2782 1126 2691 1242 2691C1242 2575 1332 2484 1449 2484C1449 2368 1540 2277 1656 2277C1656 2161 1746 2070 1863 2070C1863 1954 1954 1863 2070 1863C2070 1747 2160 1656 2277 1656C2277 1540 2368 1449 2484 1449C2484 1333 2574 1242 2691 1242C2691 1126 2782 1035 2898 1035ZM206 1656C323 1656 414 1747 414 1863C529 1863 620 1954 620 2070C737 2070 828 2161 828 2277H620C505 2277 414 2187 414 2070C298 2070 206 1979 206 1863C90 1863 0 1772 0 1656V1449C116 1449 206 1540 206 1656ZM2898 1449V1656C2898 1772 2807 1863 2691 1863C2691 1979 2600 2070 2484 2070C2484 2187 2393 2277 2277 2277C2277 2393 2186 2484 2070 2484C2070 2601 1979 2691 1863 2691C1863 2807 1771 2898 1656 2898H1449C1449 2782 1540 2691 1656 2691C1656 2575 1746 2484 1863 2484C1863 2368 1954 2277 2070 2277C2070 2161 2160 2070 2277 2070C2277 1954 2368 1863 2484 1863C2484 1747 2574 1656 2691 1656C2691 1540 2782 1449 2898 1449ZM206 2070C323 2070 414 2161 414 2277C529 2277 620 2368 620 2484H414C298 2484 206 2393 206 2277C90 2277 0 2187 0 2070V1863C116 1863 206 1954 206 2070ZM2898 1863V2070C2898 2187 2807 2277 2691 2277C2691 2393 2600 2484 2484 2484C2484 2601 2393 2691 2277 2691C2277 2807 2186 2898 2070 2898H1863C1863 2782 1954 2691 2070 2691C2070 2575 2160 2484 2277 2484C2277 2368 2368 2277 2484 2277C2484 2161 2574 2070 2691 2070C2691 1954 2782 1863 2898 1863ZM206 2484C323 2484 414 2575 414 2691H206C90 2691 0 2601 0 2484V2277C116 2277 206 2368 206 2484ZM2898 2277V2484C2898 2601 2807 2691 2691 2691C2691 2807 2600 2898 2484 2898H2277C2277 2782 2368 2691 2484 2691C2484 2575 2574 2484 2691 2484C2691 2368 2782 2277 2898 2277ZM206 2898H0V2691C116 2691 206 2782 206 2898ZM2898 2691V2898H2691C2691 2782 2782 2691 2898 2691Z" fill="black" transform="translate(289.8, 3187.8) scale(1, -1)"/>
</svg>