<?xml version="1.0" encoding="UTF-8"?>
<svg xmlns="http://www.w3.org/2000/svg" viewBox="0 0 3063.6 3477.6" width="200" height="200">
  <path d="M414 0H621V207C621 323 530 414 414 414H207C91 414 0 505 0 621V207H207C323 207 414 116 414 0ZM1656 0H1863V207C1863 323 1772 414 1656 414H1449C1333 414 1242 505 1242 621V828C1242 944 1151 1035 1035 1035H828C712 1035 621 1126 621 1242V1449C621 1565 530 1656 414 1656H0V1449H207C323 1449 414 1358 414 1242V1035C414 919 505 828 621 828H828C944 828 1035 737 1035 621V414C1035 298 1126 207 1242 207H1449C1565 207 1656 116 1656 0ZM2484 207V828C2484 944 2393 1035 2277 1035H2070C1954 1035 1863 1126 1863 1242V1449C1863 1565 1772 1656 1656 1656H1449C1333 1656 1242 1747 1242 1863V2070C1242 2186 1151 2277 1035 2277H828C712 2277 621 2368 621 2484V2691C621 2807 530 2898 414 2898H0V2691H207C323 2691 414 2600 414 2484V2277C414 2161 505 2070 621 2070H828C944 2070 1035 1979 1035 1863V1656C1035 1540 1126 1449 1242 1449H1449C1565 1449 1656 1358 1656 1242V1035C1656 919 1747 828 1863 828H2070C2186 828 2277 737 2277 621V414C2277 298 2368 207 2484 207ZM2484 1449V2070C2484 2186 2393 2277 2277 2277H2070C1954 2277 1863 2368 1863 2484V2691C1863 2807 1772 2898 1656 2898H1035C1035 2782 1126 2691 1242 2691H1449C1565 2691 1656 2600 1656 2484V2277C1656 2161 1747 2070 1863 2070H2070C2186 2070 2277 1979 2277 1863V1656C2277 1540 2368 1449 2484 1449Z" fill="black" transform="translate(289.8, 3187.8) scale(1, -1)"/>
</svg>