<?xml version="1.0" encoding="UTF-8"?>
<svg xmlns="http://www.w3.org/2000/svg" viewBox="0 0 5216.4 3146.4" width="200" height="200">
  <path d="M1035 207H1863C1979 207 2070 298 2070 414C2070 530 2161 621 2277 621H2484C2484 737 2575 828 2691 828H3726C3842 828 3933 737 3933 621C4049 621 4140 530 4140 414V207H4347V1035C4347 1151 4256 1242 4140 1242C4140 1358 4049 1449 3933 1449V1656C3933 1772 3842 1863 3726 1863V2070C3726 2186 3635 2277 3519 2277C3519 2393 3428 2484 3312 2484H2898C2782 2484 2691 2393 2691 2277V2070C2575 2070 2484 1979 2484 1863C2368 1863 2277 1772 2277 1656V1449C2161 1449 2070 1358 2070 1242V1035H1863V1242C1863 1358 1772 1449 1656 1449H414C298 1449 207 1358 207 1242C91 1242 0 1151 0 1035V828C116 828 207 919 207 1035C323 1035 414 1126 414 1242H1656V1035C1656 919 1747 828 1863 828C1863 712 1772 621 1656 621C1656 737 1565 828 1449 828C1333 828 1242 919 1242 1035C1242 919 1151 828 1035 828C919 828 828 919 828 1035C828 919 737 828 621 828C505 828 414 919 414 1035C414 919 323 828 207 828H0V414H828C944 414 1035 323 1035 207ZM2277 1242C2393 1242 2484 1333 2484 1449V1656C2600 1656 2691 1747 2691 1863C2807 1863 2898 1954 2898 2070V2277H3312C3312 2161 3403 2070 3519 2070V1863C3519 1747 3610 1656 3726 1656V1449C3726 1333 3817 1242 3933 1242H3726C3610 1242 3519 1333 3519 1449C3403 1449 3312 1540 3312 1656C3312 1540 3221 1449 3105 1449C2989 1449 2898 1540 2898 1656C2898 1540 2807 1449 2691 1449C2691 1333 2600 1242 2484 1242ZM414 2070C530 2070 621 2161 621 2277C621 2161 712 2070 828 2070C944 2070 1035 2161 1035 2277C1035 2161 1126 2070 1242 2070C1358 2070 1449 2161 1449 2277H1242C1242 2393 1151 2484 1035 2484C919 2484 828 2393 828 2277C828 2393 737 2484 621 2484C505 2484 414 2393 414 2277H207C207 2161 298 2070 414 2070Z" fill="black" transform="translate(434.70000000000005, 2918.7) scale(1, -1)"/>
</svg>