<?xml version="1.0" encoding="UTF-8"?>
<svg xmlns="http://www.w3.org/2000/svg" viewBox="0 0 2856.6 3477.6" width="200" height="200">
  <path d="M207 0H2070C2186 0 2277 91 2277 207V2691C2277 2807 2186 2898 2070 2898H207C91 2898 0 2807 0 2691C0 2575 91 2484 207 2484V1863C91 1863 0 1772 0 1656C0 1540 91 1449 207 1449C323 1449 414 1540 414 1656V2691H1242V1863C1242 1747 1333 1656 1449 1656C1565 1656 1656 1747 1656 1863V2691H2070V207H414V1242C414 1358 323 1449 207 1449C91 1449 0 1358 0 1242C0 1126 91 1035 207 1035V414C91 414 0 323 0 207C0 91 91 0 207 0Z" fill="black" transform="translate(289.8, 3187.8) scale(1, -1)"/>
</svg>