<?xml version="1.0" encoding="UTF-8"?>
<svg xmlns="http://www.w3.org/2000/svg" viewBox="0 0 4471.2 3643.2" width="200" height="200">
  <path d="M621 0H828C944 0 1035 91 1035 207V414C1035 530 944 621 828 621H2070C2186 621 2277 712 2277 828V1449H3519V828H2277C2277 712 2368 621 2484 621H2898C2782 621 2691 530 2691 414V207C2691 91 2782 0 2898 0H3105C3221 0 3312 91 3312 207V414C3312 530 3221 621 3105 621H3726V1449C3726 1565 3635 1656 3519 1656H2277V2898H1035C919 2898 828 2807 828 2691H2070V2070H1035V2277C919 2277 828 2186 828 2070C828 1954 919 1863 1035 1863H2070V828H207V1035H621C737 1035 828 1126 828 1242C944 1242 1035 1333 1035 1449C1035 1565 944 1656 828 1656H414V1863H621V2277C737 2277 828 2368 828 2484V2691C712 2691 621 2600 621 2484C505 2484 414 2393 414 2277V2070C298 2070 207 1979 207 1863V1449C91 1449 0 1358 0 1242V621H621C505 621 414 530 414 414V207C414 91 505 0 621 0ZM207 1242C323 1242 414 1333 414 1449H828C712 1449 621 1358 621 1242ZM1242 1449H1449C1565 1449 1656 1540 1656 1656H1449C1333 1656 1242 1565 1242 1449ZM1242 2484V2691C1126 2691 1035 2600 1035 2484V2277C1151 2277 1242 2368 1242 2484Z" fill="black" transform="translate(372.6, 3270.6) scale(1, -1)"/>
</svg>