<?xml version="1.0" encoding="UTF-8"?>
<svg xmlns="http://www.w3.org/2000/svg" viewBox="0 0 3477.6 3477.6" width="200" height="200">
  <path d="M1035 0H1863C1979 0 2070 91 2070 207V414C2186 414 2277 505 2277 621V828H2691C2807 828 2898 919 2898 1035H2484C2600 1035 2691 1126 2691 1242C2807 1242 2898 1333 2898 1449H2691V2691C2691 2807 2600 2898 2484 2898H2277C2161 2898 2070 2807 2070 2691V2484C2070 2600 1979 2691 1863 2691H1035C919 2691 828 2600 828 2484V2691C828 2807 737 2898 621 2898H414C298 2898 207 2807 207 2691V1449H0C0 1333 91 1242 207 1242C207 1126 298 1035 414 1035H0C0 919 91 828 207 828H621V621C621 505 712 414 828 414V207C828 91 919 0 1035 0ZM1242 207C1126 207 1035 298 1035 414C919 414 828 505 828 621V828C828 944 737 1035 621 1035C505 1035 414 1126 414 1242H828V1449H414V2691H621V2277C621 2161 712 2070 828 2070C944 2070 1035 2161 1035 2277V2484H1863V2277C1863 2161 1954 2070 2070 2070C2186 2070 2277 2161 2277 2277V2691H2484V1449H2070V1242H2484C2484 1126 2393 1035 2277 1035C2161 1035 2070 944 2070 828V621C2070 505 1979 414 1863 414C1863 298 1772 207 1656 207C1540 207 1449 298 1449 414C1449 298 1358 207 1242 207ZM1449 621C1565 621 1656 712 1656 828C1540 828 1449 919 1449 1035C1449 1151 1540 1242 1656 1242V1449H1242V1242C1358 1242 1449 1151 1449 1035C1449 919 1358 828 1242 828C1242 712 1333 621 1449 621ZM828 1449C828 1333 919 1242 1035 1242C1151 1242 1242 1333 1242 1449V1656C1126 1656 1035 1565 1035 1449C1035 1565 944 1656 828 1656ZM1656 1449C1656 1333 1747 1242 1863 1242C1979 1242 2070 1333 2070 1449V1656C1954 1656 1863 1565 1863 1449C1863 1565 1772 1656 1656 1656ZM828 1656C944 1656 1035 1747 1035 1863C1035 1747 1126 1656 1242 1656V1863C1242 1979 1151 2070 1035 2070C919 2070 828 1979 828 1863ZM1656 1656C1772 1656 1863 1747 1863 1863C1863 1747 1954 1656 2070 1656V1863C2070 1979 1979 2070 1863 2070C1747 2070 1656 1979 1656 1863Z" fill="black" transform="translate(289.8, 3187.8) scale(1, -1)"/>
</svg>