<?xml version="1.0" encoding="UTF-8"?>
<svg xmlns="http://www.w3.org/2000/svg" viewBox="0 0 3063.6 3477.6" width="200" height="200">
  <path d="M1242 0C1358 0 1449 91 1449 207C1449 323 1540 414 1656 414C1656 298 1747 207 1863 207C1979 207 2070 298 2070 414C2070 530 1979 621 1863 621C1863 505 1772 414 1656 414H1449C1333 414 1242 505 1242 621C1242 737 1333 828 1449 828C1449 944 1358 1035 1242 1035C1126 1035 1035 944 1035 828C1151 828 1242 737 1242 621C1242 505 1151 414 1035 414H828C712 414 621 505 621 621C505 621 414 530 414 414C414 298 505 207 621 207C737 207 828 298 828 414C944 414 1035 323 1035 207C1035 91 1126 0 1242 0ZM207 414C323 414 414 505 414 621H621V828C621 944 530 1035 414 1035V2691H621V1863C621 1747 712 1656 828 1656C944 1656 1035 1747 1035 1863V2070H1449V1863C1449 1747 1540 1656 1656 1656C1772 1656 1863 1747 1863 1863V2691H2070V1035C1954 1035 1863 944 1863 828V621H2070C2070 505 2161 414 2277 414C2393 414 2484 505 2484 621C2484 737 2393 828 2277 828H2070C2186 828 2277 919 2277 1035C2393 1035 2484 1126 2484 1242C2484 1358 2393 1449 2277 1449V2691C2277 2807 2186 2898 2070 2898H1863C1747 2898 1656 2807 1656 2691V2070C1656 2186 1565 2277 1449 2277H1035C919 2277 828 2186 828 2070V2691C828 2807 737 2898 621 2898H414C298 2898 207 2807 207 2691V1449C91 1449 0 1358 0 1242C0 1126 91 1035 207 1035C207 919 298 828 414 828H207C91 828 0 737 0 621C0 505 91 414 207 414ZM828 828C944 828 1035 919 1035 1035C1035 1151 1126 1242 1242 1242C1358 1242 1449 1151 1449 1035C1449 919 1540 828 1656 828C1772 828 1863 919 1863 1035C1863 1151 1954 1242 2070 1242C1954 1242 1863 1333 1863 1449C1863 1565 1772 1656 1656 1656C1540 1656 1449 1565 1449 1449C1449 1333 1358 1242 1242 1242C1126 1242 1035 1333 1035 1449C1035 1565 944 1656 828 1656C712 1656 621 1565 621 1449C621 1333 530 1242 414 1242C530 1242 621 1151 621 1035C621 919 712 828 828 828ZM621 1242C737 1242 828 1333 828 1449C828 1333 919 1242 1035 1242C919 1242 828 1151 828 1035C828 1151 737 1242 621 1242ZM1449 1242C1565 1242 1656 1333 1656 1449C1656 1333 1747 1242 1863 1242C1747 1242 1656 1151 1656 1035C1656 1151 1565 1242 1449 1242Z" fill="black" transform="translate(289.8, 3187.8) scale(1, -1)"/>
</svg>