<?xml version="1.0" encoding="UTF-8"?>
<svg xmlns="http://www.w3.org/2000/svg" viewBox="0 0 4471.2 3643.2" width="200" height="200">
  <path d="M1242 0C1358 0 1449 91 1449 207C1565 207 1656 298 1656 414C1772 414 1863 505 1863 621C1979 621 2070 712 2070 828C2186 828 2277 919 2277 1035C2393 1035 2484 1126 2484 1242C2600 1242 2691 1333 2691 1449C2807 1449 2898 1540 2898 1656C3014 1656 3105 1747 3105 1863C3221 1863 3312 1954 3312 2070C3428 2070 3519 2161 3519 2277C3635 2277 3726 2368 3726 2484V2691C3726 2807 3635 2898 3519 2898H3312C3196 2898 3105 2807 3105 2691C2989 2691 2898 2600 2898 2484C2782 2484 2691 2393 2691 2277C2575 2277 2484 2186 2484 2070C2368 2070 2277 1979 2277 1863C2161 1863 2070 1772 2070 1656C1954 1656 1863 1565 1863 1449C1747 1449 1656 1358 1656 1242C1540 1242 1449 1151 1449 1035C1333 1035 1242 944 1242 828C1242 944 1151 1035 1035 1035C1035 1151 944 1242 828 1242C828 1358 737 1449 621 1449C621 1565 530 1656 414 1656H207C91 1656 0 1565 0 1449V1242C0 1126 91 1035 207 1035C207 919 298 828 414 828C414 712 505 621 621 621C621 505 712 414 828 414C828 298 919 207 1035 207C1035 91 1126 0 1242 0ZM1035 414C1035 530 944 621 828 621C828 737 737 828 621 828C621 944 530 1035 414 1035C414 1151 323 1242 207 1242V1449H414C414 1333 505 1242 621 1242C621 1126 712 1035 828 1035C828 919 919 828 1035 828C1035 712 1126 621 1242 621C1358 621 1449 712 1449 828C1565 828 1656 919 1656 1035C1772 1035 1863 1126 1863 1242C1979 1242 2070 1333 2070 1449C2186 1449 2277 1540 2277 1656C2393 1656 2484 1747 2484 1863C2600 1863 2691 1954 2691 2070C2807 2070 2898 2161 2898 2277C3014 2277 3105 2368 3105 2484C3221 2484 3312 2575 3312 2691H3519V2484C3403 2484 3312 2393 3312 2277C3196 2277 3105 2186 3105 2070C2989 2070 2898 1979 2898 1863C2782 1863 2691 1772 2691 1656C2575 1656 2484 1565 2484 1449C2368 1449 2277 1358 2277 1242C2161 1242 2070 1151 2070 1035C1954 1035 1863 944 1863 828C1747 828 1656 737 1656 621C1540 621 1449 530 1449 414C1449 298 1358 207 1242 207C1126 207 1035 298 1035 414Z" fill="black" transform="translate(372.6, 3270.6) scale(1, -1)"/>
</svg>