<?xml version="1.0" encoding="UTF-8"?>
<svg xmlns="http://www.w3.org/2000/svg" viewBox="0 0 2980.8 2152.8" width="200" height="200">
  <path d="M1035 414H1449C1565 414 1656 505 1656 621H1863C1979 621 2070 712 2070 828C2186 828 2277 919 2277 1035C2277 1151 2368 1242 2484 1242C2368 1242 2277 1333 2277 1449C2277 1565 2186 1656 2070 1656C2070 1772 1979 1863 1863 1863H1656C1656 1979 1565 2070 1449 2070H1035C919 2070 828 1979 828 1863H621C505 1863 414 1772 414 1656C298 1656 207 1565 207 1449C207 1333 116 1242 0 1242C116 1242 207 1151 207 1035C207 919 298 828 414 828C414 712 505 621 621 621H828C828 505 919 414 1035 414ZM1035 828C919 828 828 919 828 1035H621C505 1035 414 1126 414 1242C414 1358 505 1449 621 1449H828C828 1565 919 1656 1035 1656H1449C1565 1656 1656 1565 1656 1449H1863C1979 1449 2070 1358 2070 1242C2070 1126 1979 1035 1863 1035H1656C1656 919 1565 828 1449 828ZM1242 1035C1358 1035 1449 1126 1449 1242C1449 1358 1358 1449 1242 1449C1126 1449 1035 1358 1035 1242C1035 1126 1126 1035 1242 1035Z" fill="black" transform="translate(248.4, 2318.4) scale(1, -1)"/>
</svg>