<?xml version="1.0" encoding="UTF-8"?>
<svg xmlns="http://www.w3.org/2000/svg" viewBox="0 0 3477.6 3477.6" width="200" height="200">
  <path d="M207 0H414C530 0 621 91 621 207C737 207 828 298 828 414C944 414 1035 505 1035 621C1151 621 1242 712 1242 828V1035C1242 1151 1333 1242 1449 1242C1565 1242 1656 1151 1656 1035V828C1656 712 1747 621 1863 621C1863 505 1954 414 2070 414C2070 298 2161 207 2277 207C2277 91 2368 0 2484 0H2691C2807 0 2898 91 2898 207V414C2898 530 2807 621 2691 621C2691 737 2600 828 2484 828C2484 944 2393 1035 2277 1035C2277 1151 2186 1242 2070 1242H1863C1747 1242 1656 1333 1656 1449C1656 1565 1747 1656 1863 1656H2070C2186 1656 2277 1747 2277 1863C2393 1863 2484 1954 2484 2070C2600 2070 2691 2161 2691 2277C2807 2277 2898 2368 2898 2484V2691C2898 2807 2807 2898 2691 2898H2484C2368 2898 2277 2807 2277 2691C2161 2691 2070 2600 2070 2484C1954 2484 1863 2393 1863 2277C1747 2277 1656 2186 1656 2070V1863C1656 1747 1565 1656 1449 1656C1333 1656 1242 1747 1242 1863V2070C1242 2186 1151 2277 1035 2277C1035 2393 944 2484 828 2484C828 2600 737 2691 621 2691C621 2807 530 2898 414 2898H207C91 2898 0 2807 0 2691V2484C0 2368 91 2277 207 2277C207 2161 298 2070 414 2070C414 1954 505 1863 621 1863C621 1747 712 1656 828 1656H1035C1151 1656 1242 1565 1242 1449C1242 1333 1151 1242 1035 1242H828C712 1242 621 1151 621 1035C505 1035 414 944 414 828C298 828 207 737 207 621C91 621 0 530 0 414V207C0 91 91 0 207 0ZM414 207H207V414C323 414 414 505 414 621C530 621 621 712 621 828C737 828 828 919 828 1035H1035V828C919 828 828 737 828 621C712 621 621 530 621 414C505 414 414 323 414 207ZM2691 207H2484C2484 323 2393 414 2277 414C2277 530 2186 621 2070 621C2070 737 1979 828 1863 828V1035H2070C2070 919 2161 828 2277 828C2277 712 2368 621 2484 621C2484 505 2575 414 2691 414ZM1035 1863H828C828 1979 737 2070 621 2070C621 2186 530 2277 414 2277C414 2393 323 2484 207 2484V2691H414C414 2575 505 2484 621 2484C621 2368 712 2277 828 2277C828 2161 919 2070 1035 2070ZM1863 1863V2070C1979 2070 2070 2161 2070 2277C2186 2277 2277 2368 2277 2484C2393 2484 2484 2575 2484 2691H2691V2484C2575 2484 2484 2393 2484 2277C2368 2277 2277 2186 2277 2070C2161 2070 2070 1979 2070 1863Z" fill="black" transform="translate(289.8, 3187.8) scale(1, -1)"/>
</svg>