<?xml version="1.0" encoding="UTF-8"?>
<svg xmlns="http://www.w3.org/2000/svg" viewBox="0 0 3477.6 3477.6" width="200" height="200">
  <path d="M1035 0H1863C1979 0 2070 91 2070 207V414C2070 530 1979 621 1863 621H1656C1656 505 1747 414 1863 414V207H1035V414C1151 414 1242 505 1242 621H1035C919 621 828 530 828 414V207C828 91 919 0 1035 0ZM1449 621C1565 621 1656 712 1656 828C1656 944 1565 1035 1449 1035C1333 1035 1242 944 1242 828C1242 712 1333 621 1449 621ZM207 828H414C530 828 621 919 621 1035V1242C505 1242 414 1151 414 1035H207V1863H414C414 1747 505 1656 621 1656V1863C621 1979 530 2070 414 2070H207C91 2070 0 1979 0 1863V1035C0 919 91 828 207 828ZM1449 1035C1565 1035 1656 1126 1656 1242C1772 1242 1863 1333 1863 1449C1863 1565 1772 1656 1656 1656C1656 1772 1565 1863 1449 1863C1333 1863 1242 1772 1242 1656C1126 1656 1035 1565 1035 1449C1035 1333 1126 1242 1242 1242C1242 1126 1333 1035 1449 1035ZM2484 828H2691C2807 828 2898 919 2898 1035V1863C2898 1979 2807 2070 2691 2070H2484C2368 2070 2277 1979 2277 1863V1656C2393 1656 2484 1747 2484 1863H2691V1035H2484C2484 1151 2393 1242 2277 1242V1035C2277 919 2368 828 2484 828ZM828 1242C944 1242 1035 1333 1035 1449C1035 1565 944 1656 828 1656C712 1656 621 1565 621 1449C621 1333 712 1242 828 1242ZM1242 1449C1358 1449 1449 1540 1449 1656C1449 1540 1540 1449 1656 1449C1540 1449 1449 1358 1449 1242C1449 1358 1358 1449 1242 1449ZM1863 1449C1863 1333 1954 1242 2070 1242C2186 1242 2277 1333 2277 1449C2277 1565 2186 1656 2070 1656C1954 1656 1863 1565 1863 1449ZM1449 1863C1565 1863 1656 1954 1656 2070C1656 2186 1565 2277 1449 2277C1333 2277 1242 2186 1242 2070C1242 1954 1333 1863 1449 1863ZM1035 2277H1242C1242 2393 1151 2484 1035 2484V2691H1863V2484C1747 2484 1656 2393 1656 2277H1863C1979 2277 2070 2368 2070 2484V2691C2070 2807 1979 2898 1863 2898H1035C919 2898 828 2807 828 2691V2484C828 2368 919 2277 1035 2277Z" fill="black" transform="translate(289.8, 3187.8) scale(1, -1)"/>
</svg>