<?xml version="1.0" encoding="UTF-8"?>
<svg xmlns="http://www.w3.org/2000/svg" viewBox="0 0 3477.6 3477.6" width="200" height="200">
  <path d="M414 0H621C737 0 828 91 828 207C828 91 919 0 1035 0H1863C1979 0 2070 91 2070 207C2070 91 2161 0 2277 0H2484C2600 0 2691 91 2691 207C2807 207 2898 298 2898 414V621C2898 737 2807 828 2691 828V1035C2691 1151 2600 1242 2484 1242V1449C2484 1565 2393 1656 2277 1656V1863C2277 1979 2186 2070 2070 2070V2277C2070 2393 1979 2484 1863 2484C1863 2600 1772 2691 1656 2691V2484C1656 2368 1747 2277 1863 2277V2070C1863 1954 1954 1863 2070 1863V1656C2070 1540 2161 1449 2277 1449V1242C2277 1126 2368 1035 2484 1035V828C2484 712 2575 621 2691 621V414C2575 414 2484 323 2484 207H2277C2277 323 2186 414 2070 414C1954 414 1863 323 1863 207H1035C1035 323 944 414 828 414C712 414 621 323 621 207H414C414 323 323 414 207 414V621C323 621 414 712 414 828V1035C530 1035 621 1126 621 1242V1449C737 1449 828 1540 828 1656V1863C944 1863 1035 1954 1035 2070V2277C1151 2277 1242 2368 1242 2484V2691C1126 2691 1035 2600 1035 2484C919 2484 828 2393 828 2277V2070C712 2070 621 1979 621 1863V1656C505 1656 414 1565 414 1449V1242C298 1242 207 1151 207 1035V828C91 828 0 737 0 621V414C0 298 91 207 207 207C207 91 298 0 414 0ZM1449 414C1565 414 1656 505 1656 621C1656 737 1565 828 1449 828C1333 828 1242 737 1242 621C1242 505 1333 414 1449 414ZM1449 1035C1565 1035 1656 1126 1656 1242V1863C1656 1979 1565 2070 1449 2070C1333 2070 1242 1979 1242 1863V1242C1242 1126 1333 1035 1449 1035ZM1449 2484C1565 2484 1656 2575 1656 2691C1656 2807 1565 2898 1449 2898C1333 2898 1242 2807 1242 2691C1242 2575 1333 2484 1449 2484Z" fill="black" transform="translate(289.8, 3187.8) scale(1, -1)"/>
</svg>