<?xml version="1.0" encoding="UTF-8"?>
<svg xmlns="http://www.w3.org/2000/svg" viewBox="0 0 3063.6 3477.6" width="200" height="200">
  <path d="M414 0H621C737 0 828 91 828 207C944 207 1035 298 1035 414V621C1151 621 1242 712 1242 828C1242 712 1333 621 1449 621V414C1449 298 1540 207 1656 207C1656 91 1747 0 1863 0H2070C2186 0 2277 91 2277 207V414C2277 530 2186 621 2070 621H1863C1747 621 1656 530 1656 414V621C1656 737 1565 828 1449 828V1035H1656C1772 1035 1863 1126 1863 1242V1035H2070V1449H2277V1035H2484V1656H2070C1954 1656 1863 1565 1863 1449C1747 1449 1656 1358 1656 1242H1449C1333 1242 1242 1151 1242 1035C1242 1151 1151 1242 1035 1242H828C828 1358 737 1449 621 1449C621 1565 530 1656 414 1656H0V1035H207V1449H414V1035H621V1242C621 1126 712 1035 828 1035H1035V828C919 828 828 737 828 621V414C828 530 737 621 621 621H414C298 621 207 530 207 414V207C207 91 298 0 414 0ZM621 207H414V414H621ZM2070 207H1863V414H2070ZM621 1656C737 1656 828 1747 828 1863C828 1747 919 1656 1035 1656C1151 1656 1242 1747 1242 1863C1242 1747 1333 1656 1449 1656C1565 1656 1656 1747 1656 1863C1656 1747 1747 1656 1863 1656C1979 1656 2070 1747 2070 1863C2186 1863 2277 1954 2277 2070V2484C2277 2600 2186 2691 2070 2691C2070 2807 1979 2898 1863 2898H621C505 2898 414 2807 414 2691C298 2691 207 2600 207 2484V2070C207 1954 298 1863 414 1863C414 1747 505 1656 621 1656ZM621 2070C621 2186 530 2277 414 2277C530 2277 621 2368 621 2484C621 2368 712 2277 828 2277C712 2277 621 2186 621 2070ZM1035 2070C1151 2070 1242 2161 1242 2277C1242 2161 1333 2070 1449 2070ZM1863 2070C1863 2186 1772 2277 1656 2277C1772 2277 1863 2368 1863 2484C1863 2368 1954 2277 2070 2277C1954 2277 1863 2186 1863 2070Z" fill="black" transform="translate(289.8, 3187.8) scale(1, -1)"/>
</svg>