<?xml version="1.0" encoding="UTF-8"?>
<svg xmlns="http://www.w3.org/2000/svg" viewBox="0 0 3477.6 3477.6" width="200" height="200">
  <path d="M0 0H207C323 0 414 91 414 207C530 207 621 298 621 414C737 414 828 505 828 621C944 621 1035 712 1035 828C1151 828 1242 919 1242 1035C1358 1035 1449 1126 1449 1242C1565 1242 1656 1333 1656 1449C1772 1449 1863 1540 1863 1656C1979 1656 2070 1747 2070 1863C2186 1863 2277 1954 2277 2070C2393 2070 2484 2161 2484 2277C2600 2277 2691 2368 2691 2484C2807 2484 2898 2575 2898 2691V2898C2782 2898 2691 2807 2691 2691C2575 2691 2484 2600 2484 2484C2368 2484 2277 2393 2277 2277C2161 2277 2070 2186 2070 2070C1954 2070 1863 1979 1863 1863C1747 1863 1656 1772 1656 1656C1540 1656 1449 1565 1449 1449C1333 1449 1242 1358 1242 1242C1126 1242 1035 1151 1035 1035C919 1035 828 944 828 828C712 828 621 737 621 621C505 621 414 530 414 414C298 414 207 323 207 207C91 207 0 116 0 0ZM414 0H621C737 0 828 91 828 207C944 207 1035 298 1035 414C1151 414 1242 505 1242 621C1358 621 1449 712 1449 828C1565 828 1656 919 1656 1035C1772 1035 1863 1126 1863 1242C1979 1242 2070 1333 2070 1449C2186 1449 2277 1540 2277 1656C2393 1656 2484 1747 2484 1863C2600 1863 2691 1954 2691 2070C2807 2070 2898 2161 2898 2277V2484C2782 2484 2691 2393 2691 2277C2575 2277 2484 2186 2484 2070C2368 2070 2277 1979 2277 1863C2161 1863 2070 1772 2070 1656C1954 1656 1863 1565 1863 1449C1747 1449 1656 1358 1656 1242C1540 1242 1449 1151 1449 1035C1333 1035 1242 944 1242 828C1126 828 1035 737 1035 621C919 621 828 530 828 414C712 414 621 323 621 207C505 207 414 116 414 0ZM828 0H1035C1151 0 1242 91 1242 207C1358 207 1449 298 1449 414C1565 414 1656 505 1656 621C1772 621 1863 712 1863 828C1979 828 2070 919 2070 1035C2186 1035 2277 1126 2277 1242C2393 1242 2484 1333 2484 1449C2600 1449 2691 1540 2691 1656C2807 1656 2898 1747 2898 1863V2070C2782 2070 2691 1979 2691 1863C2575 1863 2484 1772 2484 1656C2368 1656 2277 1565 2277 1449C2161 1449 2070 1358 2070 1242C1954 1242 1863 1151 1863 1035C1747 1035 1656 944 1656 828C1540 828 1449 737 1449 621C1333 621 1242 530 1242 414C1126 414 1035 323 1035 207C919 207 828 116 828 0ZM1242 0H1449C1565 0 1656 91 1656 207C1772 207 1863 298 1863 414C1979 414 2070 505 2070 621C2186 621 2277 712 2277 828C2393 828 2484 919 2484 1035C2600 1035 2691 1126 2691 1242C2807 1242 2898 1333 2898 1449V1656C2782 1656 2691 1565 2691 1449C2575 1449 2484 1358 2484 1242C2368 1242 2277 1151 2277 1035C2161 1035 2070 944 2070 828C1954 828 1863 737 1863 621C1747 621 1656 530 1656 414C1540 414 1449 323 1449 207C1333 207 1242 116 1242 0ZM1656 0H1863C1979 0 2070 91 2070 207C2186 207 2277 298 2277 414C2393 414 2484 505 2484 621C2600 621 2691 712 2691 828C2807 828 2898 919 2898 1035V1242C2782 1242 2691 1151 2691 1035C2575 1035 2484 944 2484 828C2368 828 2277 737 2277 621C2161 621 2070 530 2070 414C1954 414 1863 323 1863 207C1747 207 1656 116 1656 0ZM2070 0H2277C2393 0 2484 91 2484 207C2600 207 2691 298 2691 414C2807 414 2898 505 2898 621V828C2782 828 2691 737 2691 621C2575 621 2484 530 2484 414C2368 414 2277 323 2277 207C2161 207 2070 116 2070 0ZM2484 0H2691C2807 0 2898 91 2898 207V414C2782 414 2691 323 2691 207C2575 207 2484 116 2484 0ZM207 414C323 414 414 505 414 621C530 621 621 712 621 828C737 828 828 919 828 1035C944 1035 1035 1126 1035 1242C1151 1242 1242 1333 1242 1449C1358 1449 1449 1540 1449 1656C1565 1656 1656 1747 1656 1863C1772 1863 1863 1954 1863 2070C1979 2070 2070 2161 2070 2277C2186 2277 2277 2368 2277 2484C2393 2484 2484 2575 2484 2691C2600 2691 2691 2782 2691 2898H2484C2368 2898 2277 2807 2277 2691C2161 2691 2070 2600 2070 2484C1954 2484 1863 2393 1863 2277C1747 2277 1656 2186 1656 2070C1540 2070 1449 1979 1449 1863C1333 1863 1242 1772 1242 1656C1126 1656 1035 1565 1035 1449C919 1449 828 1358 828 1242C712 1242 621 1151 621 1035C505 1035 414 944 414 828C298 828 207 737 207 621C91 621 0 530 0 414V207C116 207 207 298 207 414ZM207 828C323 828 414 919 414 1035C530 1035 621 1126 621 1242C737 1242 828 1333 828 1449C944 1449 1035 1540 1035 1656C1151 1656 1242 1747 1242 1863C1358 1863 1449 1954 1449 2070C1565 2070 1656 2161 1656 2277C1772 2277 1863 2368 1863 2484C1979 2484 2070 2575 2070 2691C2186 2691 2277 2782 2277 2898H2070C1954 2898 1863 2807 1863 2691C1747 2691 1656 2600 1656 2484C1540 2484 1449 2393 1449 2277C1333 2277 1242 2186 1242 2070C1126 2070 1035 1979 1035 1863C919 1863 828 1772 828 1656C712 1656 621 1565 621 1449C505 1449 414 1358 414 1242C298 1242 207 1151 207 1035C91 1035 0 944 0 828V621C116 621 207 712 207 828ZM207 1242C323 1242 414 1333 414 1449C530 1449 621 1540 621 1656C737 1656 828 1747 828 1863C944 1863 1035 1954 1035 2070C1151 2070 1242 2161 1242 2277C1358 2277 1449 2368 1449 2484C1565 2484 1656 2575 1656 2691C1772 2691 1863 2782 1863 2898H1656C1540 2898 1449 2807 1449 2691C1333 2691 1242 2600 1242 2484C1126 2484 1035 2393 1035 2277C919 2277 828 2186 828 2070C712 2070 621 1979 621 1863C505 1863 414 1772 414 1656C298 1656 207 1565 207 1449C91 1449 0 1358 0 1242V1035C116 1035 207 1126 207 1242ZM207 1656C323 1656 414 1747 414 1863C530 1863 621 1954 621 2070C737 2070 828 2161 828 2277C944 2277 1035 2368 1035 2484C1151 2484 1242 2575 1242 2691C1358 2691 1449 2782 1449 2898H1242C1126 2898 1035 2807 1035 2691C919 2691 828 2600 828 2484C712 2484 621 2393 621 2277C505 2277 414 2186 414 2070C298 2070 207 1979 207 1863C91 1863 0 1772 0 1656V1449C116 1449 207 1540 207 1656ZM207 2070C323 2070 414 2161 414 2277C530 2277 621 2368 621 2484C737 2484 828 2575 828 2691C944 2691 1035 2782 1035 2898H828C712 2898 621 2807 621 2691C505 2691 414 2600 414 2484C298 2484 207 2393 207 2277C91 2277 0 2186 0 2070V1863C116 1863 207 1954 207 2070ZM207 2484C323 2484 414 2575 414 2691C530 2691 621 2782 621 2898H414C298 2898 207 2807 207 2691C91 2691 0 2600 0 2484V2277C116 2277 207 2368 207 2484ZM207 2898H0V2691C116 2691 207 2782 207 2898Z" fill="black" transform="translate(289.8, 3187.8) scale(1, -1)"/>
</svg>