<?xml version="1.0" encoding="UTF-8"?>
<svg xmlns="http://www.w3.org/2000/svg" viewBox="0 0 3270.6 3477.6" width="200" height="200">
  <path d="M1035 0H1242C1358 0 1449 91 1449 207H1656C1656 91 1747 0 1863 0H2070C2186 0 2277 91 2277 207V828C2393 828 2484 919 2484 1035C2600 1035 2691 1126 2691 1242V1863C2691 1979 2600 2070 2484 2070C2368 2070 2277 1979 2277 1863C2277 1747 2368 1656 2484 1656V1242C2368 1242 2277 1151 2277 1035C2161 1035 2070 944 2070 828V207H1863V621C1747 621 1656 530 1656 414H1449C1449 530 1358 621 1242 621V207H1035V828C1035 944 944 1035 828 1035C828 1151 737 1242 621 1242H414C414 1358 323 1449 207 1449V2484H414C530 2484 621 2575 621 2691H2277V2277C2277 2161 2368 2070 2484 2070C2600 2070 2691 2161 2691 2277C2691 2393 2600 2484 2484 2484V2691C2484 2807 2393 2898 2277 2898H621C505 2898 414 2807 414 2691H207C91 2691 0 2600 0 2484V1449C0 1333 91 1242 207 1242C207 1126 298 1035 414 1035H621C621 919 712 828 828 828V207C828 91 919 0 1035 0ZM1242 1242C1358 1242 1449 1333 1449 1449V1656C1333 1656 1242 1565 1242 1449C1242 1565 1151 1656 1035 1656V1449C1035 1333 1126 1242 1242 1242ZM1863 1242C1979 1242 2070 1333 2070 1449V1656C1954 1656 1863 1565 1863 1449C1863 1565 1772 1656 1656 1656V1449C1656 1333 1747 1242 1863 1242ZM1035 1656C1151 1656 1242 1747 1242 1863C1242 1747 1333 1656 1449 1656V1863C1449 1979 1358 2070 1242 2070C1126 2070 1035 1979 1035 1863ZM1656 1656C1772 1656 1863 1747 1863 1863C1863 1747 1954 1656 2070 1656V1863C2070 1979 1979 2070 1863 2070C1747 2070 1656 1979 1656 1863Z" fill="black" transform="translate(289.8, 3187.8) scale(1, -1)"/>
</svg>