<?xml version="1.0" encoding="UTF-8"?>
<svg xmlns="http://www.w3.org/2000/svg" viewBox="0 0 3063.6 3477.6" width="200" height="200">
  <path d="M207 0H2070C2186 0 2277 91 2277 207C2393 207 2484 298 2484 414C2484 530 2393 621 2277 621C2277 737 2186 828 2070 828C2186 828 2277 919 2277 1035C2277 1151 2186 1242 2070 1242C2070 1358 1979 1449 1863 1449C1863 1565 1772 1656 1656 1656C1656 1772 1565 1863 1449 1863V2277C1333 2277 1242 2186 1242 2070C1126 2070 1035 1979 1035 1863C919 1863 828 1772 828 1656C712 1656 621 1565 621 1449C505 1449 414 1358 414 1242V1035C298 1035 207 944 207 828V621C91 621 0 530 0 414V207C0 91 91 0 207 0ZM2070 207H207V414H1035C1151 414 1242 505 1242 621H1449C1565 621 1656 712 1656 828H1863C1863 712 1954 621 2070 621C2186 621 2277 530 2277 414C2161 414 2070 323 2070 207ZM414 621V828H621C737 828 828 919 828 1035H1242C1358 1035 1449 1126 1449 1242H1863C1979 1242 2070 1151 2070 1035H1656C1540 1035 1449 944 1449 828H1242C1126 828 1035 737 1035 621ZM621 1242C621 1358 712 1449 828 1449C828 1565 919 1656 1035 1656C1151 1656 1242 1747 1242 1863C1358 1863 1449 1772 1449 1656C1565 1656 1656 1565 1656 1449H1449C1333 1449 1242 1358 1242 1242ZM2070 1656C2070 1772 2161 1863 2277 1863C2161 1863 2070 1954 2070 2070C2070 1954 1979 1863 1863 1863C1979 1863 2070 1772 2070 1656ZM621 2484C621 2600 712 2691 828 2691C712 2691 621 2782 621 2898C621 2782 530 2691 414 2691C530 2691 621 2600 621 2484Z" fill="black" transform="translate(289.8, 3187.8) scale(1, -1)"/>
</svg>