<?xml version="1.0" encoding="UTF-8"?>
<svg xmlns="http://www.w3.org/2000/svg" viewBox="0 0 3477.6 3477.6" width="200" height="200">
  <path d="M207 207C323 207 414 298 414 414C414 530 323 621 207 621C91 621 0 530 0 414V0H621C621 116 530 207 414 207ZM1449 0C1565 0 1656 91 1656 207C1656 323 1565 414 1449 414C1333 414 1242 323 1242 207C1242 91 1333 0 1449 0ZM2277 0H2898V414C2898 530 2807 621 2691 621C2575 621 2484 530 2484 414C2484 298 2575 207 2691 207H2484C2368 207 2277 116 2277 0ZM1449 621C1449 737 1540 828 1656 828H1863C1979 828 2070 919 2070 1035C2070 1151 1979 1242 1863 1242V1035H1035V1242C919 1242 828 1151 828 1035C828 919 919 828 1035 828H1242C1358 828 1449 737 1449 621ZM1863 1242H2070C2070 1358 2161 1449 2277 1449C2161 1449 2070 1540 2070 1656H1863C1863 1540 1954 1449 2070 1449C1954 1449 1863 1358 1863 1242ZM207 1242C323 1242 414 1333 414 1449C414 1565 323 1656 207 1656C91 1656 0 1565 0 1449C0 1333 91 1242 207 1242ZM828 1242H1035C1035 1358 944 1449 828 1449C944 1449 1035 1540 1035 1656H828C828 1540 737 1449 621 1449C737 1449 828 1358 828 1242ZM1449 1242C1565 1242 1656 1333 1656 1449C1656 1565 1565 1656 1449 1656C1333 1656 1242 1565 1242 1449C1242 1333 1333 1242 1449 1242ZM2691 1242C2807 1242 2898 1333 2898 1449C2898 1565 2807 1656 2691 1656C2575 1656 2484 1565 2484 1449C2484 1333 2575 1242 2691 1242ZM1035 1656V1863H1863V1656C1979 1656 2070 1747 2070 1863C2070 1979 1979 2070 1863 2070H1656C1540 2070 1449 2161 1449 2277C1449 2161 1358 2070 1242 2070H1035C919 2070 828 1979 828 1863C828 1747 919 1656 1035 1656ZM207 2277C323 2277 414 2368 414 2484C414 2600 323 2691 207 2691H414C530 2691 621 2782 621 2898H0V2484C0 2368 91 2277 207 2277ZM2691 2277C2807 2277 2898 2368 2898 2484V2898H2277C2277 2782 2368 2691 2484 2691H2691C2575 2691 2484 2600 2484 2484C2484 2368 2575 2277 2691 2277ZM1449 2484C1565 2484 1656 2575 1656 2691C1656 2807 1565 2898 1449 2898C1333 2898 1242 2807 1242 2691C1242 2575 1333 2484 1449 2484Z" fill="black" transform="translate(289.8, 3187.8) scale(1, -1)"/>
</svg>