<?xml version="1.0" encoding="UTF-8"?>
<svg xmlns="http://www.w3.org/2000/svg" viewBox="0 0 3063.6 3477.6" width="200" height="200">
  <path d="M828 0C944 0 1035 91 1035 207V414C1151 414 1242 323 1242 207C1242 91 1333 0 1449 0H1656C1656 116 1747 207 1863 207C1863 323 1954 414 2070 414C2186 414 2277 505 2277 621V414C2277 298 2186 207 2070 207H2277C2393 207 2484 298 2484 414V828C2484 944 2393 1035 2277 1035V1863C2161 1863 2070 1772 2070 1656C1954 1656 1863 1747 1863 1863V2277C1747 2277 1656 2186 1656 2070C1540 2070 1449 1979 1449 1863V2277C1449 2393 1358 2484 1242 2484V2277C1242 2161 1151 2070 1035 2070V2277C1035 2393 944 2484 828 2484V2070C712 2070 621 1979 621 1863V1449C505 1449 414 1540 414 1656V1863C298 1863 207 1772 207 1656V1242C91 1242 0 1151 0 1035V414C0 298 91 207 207 207H414C298 207 207 298 207 414V621C207 505 298 414 414 414C530 414 621 323 621 207C737 207 828 116 828 0ZM1242 414V621C1358 621 1449 530 1449 414V207C1333 207 1242 298 1242 414ZM1656 414V621C1656 737 1747 828 1863 828V621C1863 505 1772 414 1656 414ZM621 621C505 621 414 712 414 828V1035C530 1035 621 944 621 828ZM1035 828V1035C1035 1151 1126 1242 1242 1242V1035C1242 919 1151 828 1035 828ZM1863 1035V1242C1863 1358 1954 1449 2070 1449V1242C2070 1126 1979 1035 1863 1035ZM1656 1242C1540 1242 1449 1333 1449 1449V1656C1565 1656 1656 1565 1656 1449ZM1035 1449C919 1449 828 1540 828 1656V1863C944 1863 1035 1772 1035 1656ZM621 2070V2277C505 2277 414 2186 414 2070V1863C530 1863 621 1954 621 2070ZM2484 2070V2277C2368 2277 2277 2186 2277 2070V1863C2393 1863 2484 1954 2484 2070ZM414 2277V2484C414 2600 323 2691 207 2691V2484C207 2368 298 2277 414 2277ZM828 2484V2898C712 2898 621 2807 621 2691C621 2575 712 2484 828 2484ZM1863 2484V2691C1747 2691 1656 2600 1656 2484V2277C1772 2277 1863 2368 1863 2484ZM2277 2484V2691C2277 2807 2186 2898 2070 2898V2691C2070 2575 2161 2484 2277 2484Z" fill="black" transform="translate(289.8, 3187.8) scale(1, -1)"/>
</svg>