<?xml version="1.0" encoding="UTF-8"?>
<svg xmlns="http://www.w3.org/2000/svg" viewBox="0 0 3477.6 3477.6" width="200" height="200">
  <path d="M207 0C323 0 414 91 414 207V828H1242C1358 828 1449 919 1449 1035V1242C1449 1358 1540 1449 1656 1449H2691C2807 1449 2898 1540 2898 1656C2898 1772 2807 1863 2691 1863C2691 1979 2600 2070 2484 2070V2277C2600 2277 2691 2368 2691 2484C2807 2484 2898 2575 2898 2691C2898 2807 2807 2898 2691 2898H1449C1333 2898 1242 2807 1242 2691V2484C1242 2368 1151 2277 1035 2277H207C91 2277 0 2186 0 2070C0 1954 91 1863 207 1863C323 1863 414 1954 414 2070H1242V1035H414V1656C414 1772 323 1863 207 1863C91 1863 0 1772 0 1656C0 1540 91 1449 207 1449V414C91 414 0 323 0 207C0 91 91 0 207 0ZM1449 1656V2691H2691C2575 2691 2484 2600 2484 2484C2368 2484 2277 2393 2277 2277V2070C2277 1954 2368 1863 2484 1863C2484 1747 2575 1656 2691 1656Z" fill="black" transform="translate(289.8, 3187.8) scale(1, -1)"/>
</svg>