<?xml version="1.0" encoding="UTF-8"?>
<svg xmlns="http://www.w3.org/2000/svg" viewBox="0 0 2277.0 2484.0" width="200" height="200">
  <path d="M828 0H1035C1151 0 1242 91 1242 207V414C1126 414 1035 323 1035 207V828C1151 828 1242 919 1242 1035H1449C1565 1035 1656 1126 1656 1242V1656C1772 1656 1863 1747 1863 1863C1863 1979 1772 2070 1656 2070C1540 2070 1449 1979 1449 1863C1449 1979 1358 2070 1242 2070C1126 2070 1035 1979 1035 1863H828C828 1979 737 2070 621 2070C505 2070 414 1979 414 1863C414 1979 323 2070 207 2070C91 2070 0 1979 0 1863C0 1747 91 1656 207 1656V1242C207 1126 298 1035 414 1035H621C621 919 712 828 828 828V207C828 323 737 414 621 414V207C621 91 712 0 828 0ZM1035 1035H828C828 1151 737 1242 621 1242H414V1656C530 1656 621 1747 621 1863C621 1747 712 1656 828 1656H1035C1151 1656 1242 1747 1242 1863C1242 1747 1333 1656 1449 1656V1242H1242C1126 1242 1035 1151 1035 1035Z" fill="black" transform="translate(207.0, 2277.0) scale(1, -1)"/>
</svg>