<?xml version="1.0" encoding="UTF-8"?>
<svg xmlns="http://www.w3.org/2000/svg" viewBox="0 0 2235.6 3477.6" width="200" height="200">
  <path d="M828 0C944 0 1035 91 1035 207V621C919 621 828 530 828 414C828 530 737 621 621 621V207C621 91 712 0 828 0ZM828 621C944 621 1035 712 1035 828C1035 944 944 1035 828 1035C712 1035 621 944 621 828C621 712 712 621 828 621ZM828 1035C944 1035 1035 1126 1035 1242C1151 1242 1242 1151 1242 1035C1358 1035 1449 1126 1449 1242C1449 1358 1358 1449 1242 1449C1358 1449 1449 1540 1449 1656C1565 1656 1656 1747 1656 1863V2691C1656 2807 1565 2898 1449 2898C1333 2898 1242 2807 1242 2691C1358 2691 1449 2600 1449 2484V1863C1333 1863 1242 1772 1242 1656C1242 1540 1151 1449 1035 1449H621C505 1449 414 1540 414 1656C414 1772 323 1863 207 1863V2484C207 2600 298 2691 414 2691C414 2807 323 2898 207 2898C91 2898 0 2807 0 2691V1863C0 1747 91 1656 207 1656C207 1540 298 1449 414 1449C298 1449 207 1358 207 1242C207 1126 298 1035 414 1035C414 1151 505 1242 621 1242C621 1126 712 1035 828 1035ZM828 1863C828 1979 919 2070 1035 2070C919 2070 828 2161 828 2277C828 2161 737 2070 621 2070C737 2070 828 1979 828 1863ZM414 2691C530 2691 621 2600 621 2484C621 2600 712 2691 828 2691C828 2807 737 2898 621 2898C505 2898 414 2807 414 2691ZM828 2691C944 2691 1035 2600 1035 2484C1035 2600 1126 2691 1242 2691C1242 2807 1151 2898 1035 2898C919 2898 828 2807 828 2691Z" fill="black" transform="translate(289.8, 3187.8) scale(1, -1)"/>
</svg>