<?xml version="1.0" encoding="UTF-8"?>
<svg xmlns="http://www.w3.org/2000/svg" viewBox="0 0 2401.2 3229.2" width="200" height="200">
  <path d="M828 0H1035V414C1151 414 1242 505 1242 621V828C1126 828 1035 737 1035 621V1242C1151 1242 1242 1333 1242 1449H1449C1565 1449 1656 1540 1656 1656V2277C1772 2277 1863 2368 1863 2484C1863 2600 1772 2691 1656 2691C1540 2691 1449 2600 1449 2484C1449 2600 1358 2691 1242 2691C1126 2691 1035 2600 1035 2484H828C828 2600 737 2691 621 2691C505 2691 414 2600 414 2484C414 2600 323 2691 207 2691C91 2691 0 2600 0 2484C0 2368 91 2277 207 2277V1656C207 1540 298 1449 414 1449H621C621 1333 712 1242 828 1242V207C828 323 737 414 621 414V207C621 91 712 0 828 0ZM1035 1449H828C828 1565 737 1656 621 1656H414V2277C530 2277 621 2368 621 2484C621 2368 712 2277 828 2277H1035C1151 2277 1242 2368 1242 2484C1242 2368 1333 2277 1449 2277V1656H1242C1126 1656 1035 1565 1035 1449Z" fill="black" transform="translate(269.1, 2960.1) scale(1, -1)"/>
</svg>