<?xml version="1.0" encoding="UTF-8"?>
<svg xmlns="http://www.w3.org/2000/svg" viewBox="0 0 3063.6 3477.6" width="200" height="200">
  <path d="M207 0H2277C2393 0 2484 91 2484 207V621C2484 737 2393 828 2277 828H2070C2186 828 2277 919 2277 1035C2393 1035 2484 1126 2484 1242C2484 1358 2393 1449 2277 1449H207C91 1449 0 1358 0 1242C0 1126 91 1035 207 1035H414C298 1035 207 944 207 828C91 828 0 737 0 621V207C0 91 91 0 207 0ZM2277 207H207V621H2277ZM414 828C530 828 621 919 621 1035H828C712 1035 621 944 621 828ZM828 828C944 828 1035 919 1035 1035H1242C1126 1035 1035 944 1035 828ZM1242 828C1358 828 1449 919 1449 1035H1656C1540 1035 1449 944 1449 828ZM1656 828C1772 828 1863 919 1863 1035H2070C1954 1035 1863 944 1863 828ZM621 1449C737 1449 828 1540 828 1656C828 1540 919 1449 1035 1449C1151 1449 1242 1540 1242 1656C1242 1540 1333 1449 1449 1449C1565 1449 1656 1540 1656 1656C1656 1540 1747 1449 1863 1449C1979 1449 2070 1540 2070 1656C2070 1540 2161 1449 2277 1449C2393 1449 2484 1540 2484 1656V1863C2368 1863 2277 1772 2277 1656C2277 1772 2186 1863 2070 1863C1954 1863 1863 1772 1863 1656C1863 1772 1772 1863 1656 1863C1540 1863 1449 1772 1449 1656C1449 1772 1358 1863 1242 1863C1126 1863 1035 1772 1035 1656C1035 1772 944 1863 828 1863C712 1863 621 1772 621 1656C621 1772 530 1863 414 1863C298 1863 207 1772 207 1656C207 1772 116 1863 0 1863V1656C0 1540 91 1449 207 1449C323 1449 414 1540 414 1656C414 1540 505 1449 621 1449ZM207 1863H2277C2393 1863 2484 1954 2484 2070C2484 2186 2393 2277 2277 2277C2277 2393 2186 2484 2070 2484C2070 2600 1979 2691 1863 2691C1863 2807 1772 2898 1656 2898H828C712 2898 621 2807 621 2691C505 2691 414 2600 414 2484C298 2484 207 2393 207 2277C91 2277 0 2186 0 2070C0 1954 91 1863 207 1863ZM2277 2070H207C323 2070 414 2161 414 2277C530 2277 621 2368 621 2484C737 2484 828 2575 828 2691H1656C1656 2575 1747 2484 1863 2484C1863 2368 1954 2277 2070 2277C2070 2161 2161 2070 2277 2070Z" fill="black" transform="translate(289.8, 3187.8) scale(1, -1)"/>
</svg>