<?xml version="1.0" encoding="UTF-8"?>
<svg xmlns="http://www.w3.org/2000/svg" viewBox="0 0 3063.6 3477.6" width="200" height="200">
  <path d="M1242 0C1242 116 1333 207 1449 207C1565 207 1656 298 1656 414H1863C1979 414 2070 505 2070 621V828H2277C2393 828 2484 919 2484 1035V1449C2484 1565 2393 1656 2277 1656C2277 1772 2186 1863 2070 1863V2070C2186 2070 2277 2161 2277 2277C2393 2277 2484 2368 2484 2484V2898C2368 2898 2277 2807 2277 2691C2161 2691 2070 2600 2070 2484H1863C1747 2484 1656 2393 1656 2277H828C828 2393 737 2484 621 2484H414C414 2600 323 2691 207 2691C207 2807 116 2898 0 2898V2484C0 2368 91 2277 207 2277C207 2161 298 2070 414 2070V1863C298 1863 207 1772 207 1656C91 1656 0 1565 0 1449V1035C0 919 91 828 207 828H414V621C414 505 505 414 621 414H828C828 298 919 207 1035 207C1151 207 1242 116 1242 0ZM828 621C712 621 621 712 621 828C621 944 530 1035 414 1035H207C207 1151 298 1242 414 1242H207C207 1358 298 1449 414 1449H207C207 1565 298 1656 414 1656C414 1772 505 1863 621 1863C621 1979 712 2070 828 2070H1035C1151 2070 1242 1979 1242 1863C1242 1979 1333 2070 1449 2070H1656C1772 2070 1863 1979 1863 1863C1979 1863 2070 1772 2070 1656C2186 1656 2277 1565 2277 1449H2070C2186 1449 2277 1358 2277 1242H2070C2186 1242 2277 1151 2277 1035H2070C1954 1035 1863 944 1863 828V621C1747 621 1656 712 1656 828V621C1540 621 1449 712 1449 828V1035C1449 1151 1358 1242 1242 1242C1126 1242 1035 1151 1035 1035V621C919 621 828 712 828 828ZM1242 621C1126 621 1035 712 1035 828C1035 944 1126 1035 1242 1035C1358 1035 1449 944 1449 828C1449 712 1358 621 1242 621ZM1242 1242C1242 1358 1333 1449 1449 1449H1863C1863 1565 1772 1656 1656 1656C1540 1656 1449 1565 1449 1449H1035C1035 1565 944 1656 828 1656C712 1656 621 1565 621 1449H1035C1151 1449 1242 1358 1242 1242Z" fill="black" transform="translate(289.8, 3187.8) scale(1, -1)"/>
</svg>