<?xml version="1.0" encoding="UTF-8"?>
<svg xmlns="http://www.w3.org/2000/svg" viewBox="0 0 2359.8 2980.8" width="200" height="200">
  <path d="M1656 207C1772 207 1863 298 1863 414V1656C1863 1772 1772 1863 1656 1863C1540 1863 1449 1772 1449 1656C1449 1540 1540 1449 1656 1449C1656 1333 1565 1242 1449 1242V2070C1449 2186 1358 2277 1242 2277C1126 2277 1035 2186 1035 2070C1035 1954 1126 1863 1242 1863V1449C1242 1333 1151 1242 1035 1242V2277C1035 2393 944 2484 828 2484C712 2484 621 2393 621 2277C621 2161 712 2070 828 2070V1449C828 1333 737 1242 621 1242V2070C621 2186 530 2277 414 2277C298 2277 207 2186 207 2070C207 1954 298 1863 414 1863V1035C414 919 323 828 207 828V1035C323 1035 414 1126 414 1242C414 1358 323 1449 207 1449C91 1449 0 1358 0 1242V621C0 505 91 414 207 414C207 298 298 207 414 207V0H1449C1565 0 1656 91 1656 207Z" fill="black" transform="translate(248.4, 2732.4) scale(1, -1)"/>
</svg>