<?xml version="1.0" encoding="UTF-8"?>
<svg xmlns="http://www.w3.org/2000/svg" viewBox="0 0 2442.6 3477.6" width="200" height="200">
  <path d="M1449 0V414C1565 414 1656 505 1656 621V828C1772 828 1863 919 1863 1035V1656C1747 1656 1656 1565 1656 1449C1656 1333 1565 1242 1449 1242V1863C1333 1863 1242 1772 1242 1656C1242 1540 1151 1449 1035 1449V2070C919 2070 828 1979 828 1863C828 1747 737 1656 621 1656V1863C505 1863 414 1772 414 1656V1449C414 1333 323 1242 207 1242C207 1358 116 1449 0 1449V828C0 712 91 621 207 621C207 505 298 414 414 414C530 414 621 323 621 207V0ZM0 1449C116 1449 207 1540 207 1656C207 1772 116 1863 0 1863ZM1863 1656V2070C1747 2070 1656 1979 1656 1863C1656 1747 1747 1656 1863 1656ZM621 1863V2277C505 2277 414 2186 414 2070C414 1954 505 1863 621 1863ZM1449 1863V2277C1333 2277 1242 2186 1242 2070C1242 1954 1333 1863 1449 1863ZM1035 2070V2484C919 2484 828 2393 828 2277C828 2161 919 2070 1035 2070ZM1863 2070V2484C1747 2484 1656 2393 1656 2277C1656 2161 1747 2070 1863 2070ZM621 2277V2691C505 2691 414 2600 414 2484C414 2368 505 2277 621 2277ZM1449 2277V2691C1333 2691 1242 2600 1242 2484C1242 2368 1333 2277 1449 2277ZM1035 2484V2898C919 2898 828 2807 828 2691C828 2575 919 2484 1035 2484Z" fill="black" transform="translate(289.8, 3187.8) scale(1, -1)"/>
</svg>