<?xml version="1.0" encoding="UTF-8"?>
<svg xmlns="http://www.w3.org/2000/svg" viewBox="0 0 3477.6 3477.6" width="200" height="200">
  <path d="M1449 0C1565 0 1656 91 1656 207C1772 207 1863 298 1863 414C1979 414 2070 505 2070 621C2186 621 2277 712 2277 828C2393 828 2484 919 2484 1035H2691C2807 1035 2898 1126 2898 1242V2070C2898 2186 2807 2277 2691 2277C2691 2393 2600 2484 2484 2484C2484 2600 2393 2691 2277 2691C2277 2807 2186 2898 2070 2898C1954 2898 1863 2807 1863 2691C1747 2691 1656 2600 1656 2484C1540 2484 1449 2393 1449 2277C1449 2393 1358 2484 1242 2484C1242 2600 1151 2691 1035 2691C1035 2807 944 2898 828 2898C712 2898 621 2807 621 2691C505 2691 414 2600 414 2484C298 2484 207 2393 207 2277C91 2277 0 2186 0 2070V1242C0 1126 91 1035 207 1035H414C414 919 505 828 621 828C621 712 712 621 828 621C828 505 919 414 1035 414C1035 298 1126 207 1242 207C1242 91 1333 0 1449 0ZM1242 414C1242 530 1151 621 1035 621C1035 737 944 828 828 828C828 944 737 1035 621 1035V2070C621 2186 530 2277 414 2277C530 2277 621 2368 621 2484C737 2484 828 2575 828 2691C828 2575 919 2484 1035 2484C1035 2368 1126 2277 1242 2277C1242 2161 1333 2070 1449 2070C1565 2070 1656 2161 1656 2277C1772 2277 1863 2368 1863 2484C1979 2484 2070 2575 2070 2691C2070 2575 2161 2484 2277 2484C2277 2368 2368 2277 2484 2277C2368 2277 2277 2186 2277 2070V1035C2161 1035 2070 944 2070 828C1954 828 1863 737 1863 621C1747 621 1656 530 1656 414C1540 414 1449 323 1449 207C1449 323 1358 414 1242 414ZM414 1242H207V2070H414ZM2484 1242V2070H2691V1242Z" fill="black" transform="translate(289.8, 3187.8) scale(1, -1)"/>
</svg>