<?xml version="1.0" encoding="UTF-8"?>
<svg xmlns="http://www.w3.org/2000/svg" viewBox="0 0 3063.6 3477.6" width="200" height="200">
  <path d="M2070 207C1954 207 1863 298 1863 414C1863 530 1772 621 1656 621H2277C2393 621 2484 712 2484 828C2484 944 2393 1035 2277 1035V1242H2070V2691C2070 2807 1979 2898 1863 2898C1863 2782 1772 2691 1656 2691C1656 2575 1747 2484 1863 2484V2277C1863 2393 1772 2484 1656 2484H414V2691C298 2691 207 2782 207 2898C91 2898 0 2807 0 2691C0 2575 91 2484 207 2484C323 2484 414 2393 414 2277V1242C530 1242 621 1151 621 1035C737 1035 828 944 828 828V621C712 621 621 530 621 414C505 414 414 323 414 207V0H2277C2277 116 2186 207 2070 207ZM1242 1242V1449C1358 1449 1449 1358 1449 1242ZM1449 1242V1449C1565 1449 1656 1358 1656 1242ZM1035 1656C1035 1772 944 1863 828 1863C944 1863 1035 1954 1035 2070C1035 1954 1126 1863 1242 1863C1126 1863 1035 1772 1035 1656ZM1656 1656C1656 1772 1565 1863 1449 1863C1565 1863 1656 1954 1656 2070C1656 1954 1747 1863 1863 1863C1747 1863 1656 1772 1656 1656ZM621 2484C737 2484 828 2575 828 2691C712 2691 621 2782 621 2898C505 2898 414 2807 414 2691C414 2575 505 2484 621 2484ZM2070 2691C2070 2575 2161 2484 2277 2484C2393 2484 2484 2575 2484 2691C2484 2807 2393 2898 2277 2898C2277 2782 2186 2691 2070 2691Z" fill="black" transform="translate(289.8, 3187.8) scale(1, -1)"/>
</svg>