<?xml version="1.0" encoding="UTF-8"?>
<svg xmlns="http://www.w3.org/2000/svg" viewBox="0 0 2980.8 2566.8" width="200" height="200">
  <path d="M828 0H1863C1979 0 2070 91 2070 207V1656H2277V1863C2277 1979 2368 2070 2484 2070H2277C2161 2070 2070 1979 2070 1863C2070 1979 1979 2070 1863 2070H1656C1772 2070 1863 1979 1863 1863V1449C1747 1449 1656 1540 1656 1656H828C828 1540 737 1449 621 1449V1863C621 1979 712 2070 828 2070H621C505 2070 414 1979 414 1863C414 1979 323 2070 207 2070H0C116 2070 207 1979 207 1863V1656C323 1656 414 1565 414 1449V414C530 414 621 323 621 207C737 207 828 116 828 0ZM1242 414V621C1358 621 1449 530 1449 414ZM1449 414V621C1565 621 1656 530 1656 414ZM1035 828C1035 944 944 1035 828 1035C944 1035 1035 1126 1035 1242C1035 1126 1126 1035 1242 1035C1126 1035 1035 944 1035 828ZM1656 828C1656 944 1565 1035 1449 1035C1565 1035 1656 1126 1656 1242C1656 1126 1747 1035 1863 1035C1747 1035 1656 944 1656 828Z" fill="black" transform="translate(248.4, 2318.4) scale(1, -1)"/>
</svg>