<?xml version="1.0" encoding="UTF-8"?>
<svg xmlns="http://www.w3.org/2000/svg" viewBox="0 0 3063.6 3477.6" width="200" height="200">
  <path d="M1242 0C1242 116 1333 207 1449 207H1863C1979 207 2070 298 2070 414C2070 530 1979 621 1863 621C1747 621 1656 530 1656 414H1449C1333 414 1242 505 1242 621H2277C2393 621 2484 712 2484 828V1656C2484 1772 2393 1863 2277 1863C2161 1863 2070 1772 2070 1656C2070 1540 2161 1449 2277 1449H2070V1863C2186 1863 2277 1954 2277 2070V2898C2161 2898 2070 2807 2070 2691H414C414 2807 323 2898 207 2898V2070C207 1954 298 1863 414 1863V1449H207C323 1449 414 1540 414 1656C414 1772 323 1863 207 1863C91 1863 0 1772 0 1656V828C0 712 91 621 207 621H1242C1242 505 1151 414 1035 414H828C828 530 737 621 621 621C505 621 414 530 414 414C414 298 505 207 621 207H1035C1151 207 1242 116 1242 0ZM414 828C298 828 207 919 207 1035C207 1151 298 1242 414 1242C530 1242 621 1151 621 1035C621 1151 712 1242 828 1242C944 1242 1035 1151 1035 1035C1035 1151 1126 1242 1242 1242C1358 1242 1449 1151 1449 1035C1449 1151 1540 1242 1656 1242C1772 1242 1863 1151 1863 1035C1863 1151 1954 1242 2070 1242C2186 1242 2277 1151 2277 1035C2277 919 2186 828 2070 828ZM828 1242C712 1242 621 1333 621 1449C621 1565 712 1656 828 1656C944 1656 1035 1747 1035 1863C1151 1863 1242 1954 1242 2070C1242 1954 1333 1863 1449 1863C1449 1747 1540 1656 1656 1656C1772 1656 1863 1565 1863 1449C1863 1333 1772 1242 1656 1242C1540 1242 1449 1333 1449 1449C1449 1333 1358 1242 1242 1242C1126 1242 1035 1333 1035 1449C1035 1333 944 1242 828 1242ZM1242 1449C1242 1565 1333 1656 1449 1656H1035C1151 1656 1242 1565 1242 1449ZM621 2070C505 2070 414 2161 414 2277C414 2393 505 2484 621 2484H1035C1151 2484 1242 2393 1242 2277C1242 2161 1151 2070 1035 2070ZM828 2070C828 2186 919 2277 1035 2277C919 2277 828 2368 828 2484C828 2368 737 2277 621 2277C737 2277 828 2186 828 2070ZM1863 2070H1449C1333 2070 1242 2161 1242 2277C1242 2393 1333 2484 1449 2484H1863C1979 2484 2070 2393 2070 2277C2070 2161 1979 2070 1863 2070ZM1656 2070C1656 2186 1747 2277 1863 2277C1747 2277 1656 2368 1656 2484C1656 2368 1565 2277 1449 2277C1565 2277 1656 2186 1656 2070Z" fill="black" transform="translate(289.8, 3187.8) scale(1, -1)"/>
</svg>