<?xml version="1.0" encoding="UTF-8"?>
<svg xmlns="http://www.w3.org/2000/svg" viewBox="0 0 2028.6 3477.6" width="200" height="200">
  <path d="M621 0C737 0 828 91 828 207H1449C1449 323 1358 414 1242 414H1035C1151 414 1242 505 1242 621H1449C1449 737 1358 828 1242 828H621V1863C737 1863 828 1954 828 2070C828 2186 737 2277 621 2277C505 2277 414 2186 414 2070V207C414 91 505 0 621 0ZM207 2277H414C414 2393 323 2484 207 2484V2691H1035V2484C919 2484 828 2393 828 2277H1035C1151 2277 1242 2368 1242 2484V2691C1242 2807 1151 2898 1035 2898H207C91 2898 0 2807 0 2691V2484C0 2368 91 2277 207 2277Z" fill="black" transform="translate(289.8, 3187.8) scale(1, -1)"/>
</svg>