<?xml version="1.0" encoding="UTF-8"?>
<svg xmlns="http://www.w3.org/2000/svg" viewBox="0 0 2649.6 3477.6" width="200" height="200">
  <path d="M828 0H1242C1358 0 1449 91 1449 207H1242C1358 207 1449 298 1449 414H1242C1358 414 1449 505 1449 621H1242C1358 621 1449 712 1449 828C1565 828 1656 919 1656 1035C1772 1035 1863 1126 1863 1242C1979 1242 2070 1333 2070 1449V2277C2070 2393 1979 2484 1863 2484C1747 2484 1656 2393 1656 2277C1656 2161 1747 2070 1863 2070V1449C1747 1449 1656 1358 1656 1242C1540 1242 1449 1151 1449 1035C1333 1035 1242 944 1242 828V1035H828V828C828 944 737 1035 621 1035C621 1151 530 1242 414 1242C414 1358 323 1449 207 1449V2070C323 2070 414 2161 414 2277C414 2393 323 2484 207 2484C91 2484 0 2393 0 2277V1449C0 1333 91 1242 207 1242C207 1126 298 1035 414 1035C414 919 505 828 621 828C621 712 712 621 828 621H621C621 505 712 414 828 414H621C621 298 712 207 828 207H621C621 91 712 0 828 0ZM1035 1035C1151 1035 1242 1126 1242 1242V1449C1126 1449 1035 1358 1035 1242C1035 1358 944 1449 828 1449V1242C828 1126 919 1035 1035 1035ZM828 1449C944 1449 1035 1540 1035 1656C1035 1540 1126 1449 1242 1449V1656C1242 1772 1151 1863 1035 1863C919 1863 828 1772 828 1656ZM414 2484C530 2484 621 2575 621 2691H1449C1449 2575 1540 2484 1656 2484C1772 2484 1863 2575 1863 2691C1863 2807 1772 2898 1656 2898H414C298 2898 207 2807 207 2691C207 2575 298 2484 414 2484Z" fill="black" transform="translate(289.8, 3187.8) scale(1, -1)"/>
</svg>