<?xml version="1.0" encoding="UTF-8"?>
<svg xmlns="http://www.w3.org/2000/svg" viewBox="0 0 3063.6 3477.6" width="200" height="200">
  <path d="M1242 0C1358 0 1449 91 1449 207C1333 207 1242 298 1242 414C1242 298 1151 207 1035 207C1035 91 1126 0 1242 0ZM207 414C323 414 414 505 414 621H2070C2070 505 2161 414 2277 414C2393 414 2484 505 2484 621C2484 737 2393 828 2277 828H1449C1333 828 1242 919 1242 1035C1358 1035 1449 1126 1449 1242C1449 1358 1540 1449 1656 1449C1656 1333 1747 1242 1863 1242C1979 1242 2070 1333 2070 1449C2070 1565 1979 1656 1863 1656C1747 1656 1656 1747 1656 1863V2070C1656 2186 1565 2277 1449 2277C1333 2277 1242 2368 1242 2484C1242 2600 1333 2691 1449 2691H1656C1656 2575 1747 2484 1863 2484C1979 2484 2070 2575 2070 2691C2186 2691 2277 2600 2277 2484C2393 2484 2484 2575 2484 2691C2484 2807 2393 2898 2277 2898H1449C1333 2898 1242 2807 1242 2691C1242 2807 1151 2898 1035 2898H207C91 2898 0 2807 0 2691C0 2575 91 2484 207 2484C207 2600 298 2691 414 2691C414 2575 505 2484 621 2484C737 2484 828 2575 828 2691H1035C1151 2691 1242 2600 1242 2484C1242 2368 1151 2277 1035 2277C919 2277 828 2186 828 2070V1863C828 1747 737 1656 621 1656C505 1656 414 1565 414 1449C414 1333 505 1242 621 1242C737 1242 828 1333 828 1449C944 1449 1035 1358 1035 1242C1035 1126 1126 1035 1242 1035C1242 919 1151 828 1035 828H207C91 828 0 737 0 621C0 505 91 414 207 414ZM414 1863C414 1979 505 2070 621 2070C505 2070 414 2161 414 2277C414 2161 323 2070 207 2070C323 2070 414 1979 414 1863ZM2070 1863C2070 1979 2161 2070 2277 2070C2161 2070 2070 2161 2070 2277C2070 2161 1979 2070 1863 2070C1979 2070 2070 1979 2070 1863Z" fill="black" transform="translate(289.8, 3187.8) scale(1, -1)"/>
</svg>