<?xml version="1.0" encoding="UTF-8"?>
<svg xmlns="http://www.w3.org/2000/svg" viewBox="0 0 3063.6 3477.6" width="200" height="200">
  <path d="M207 0H828C944 0 1035 91 1035 207C1035 323 944 414 828 414C712 414 621 323 621 207H414C298 207 207 298 207 414V621C323 621 414 530 414 414C414 530 505 621 621 621C737 621 828 530 828 414C828 530 919 621 1035 621C1151 621 1242 530 1242 414C1242 530 1333 621 1449 621C1565 621 1656 530 1656 414C1540 414 1449 323 1449 207C1449 91 1540 0 1656 0H2277C2393 0 2484 91 2484 207V1449C2484 1565 2393 1656 2277 1656C2277 1772 2368 1863 2484 1863C2368 1863 2277 1954 2277 2070C2393 2070 2484 2161 2484 2277V2484C2484 2600 2393 2691 2277 2691C2161 2691 2070 2782 2070 2898C2070 2782 1979 2691 1863 2691C1747 2691 1656 2782 1656 2898C1656 2782 1565 2691 1449 2691C1333 2691 1242 2782 1242 2898C1242 2782 1151 2691 1035 2691C919 2691 828 2782 828 2898C828 2782 737 2691 621 2691C505 2691 414 2782 414 2898C414 2782 323 2691 207 2691C91 2691 0 2600 0 2484V2277C0 2161 91 2070 207 2070C207 1954 116 1863 0 1863C116 1863 207 1772 207 1656C91 1656 0 1565 0 1449V207C0 91 91 0 207 0ZM1035 207C1151 207 1242 116 1242 0C1242 116 1333 207 1449 207ZM1863 207C1863 323 1772 414 1656 414C1656 530 1747 621 1863 621C1979 621 2070 530 2070 414C2070 530 2161 621 2277 621V414C2277 298 2186 207 2070 207ZM207 1035V1449C207 1565 298 1656 414 1656C530 1656 621 1565 621 1449C621 1565 712 1656 828 1656C944 1656 1035 1747 1035 1863C1035 1979 1126 2070 1242 2070C1358 2070 1449 1979 1449 1863C1449 1747 1540 1656 1656 1656C1772 1656 1863 1565 1863 1449C1863 1565 1954 1656 2070 1656C2186 1656 2277 1565 2277 1449V1035C2161 1035 2070 1126 2070 1242C2070 1126 1979 1035 1863 1035C1747 1035 1656 1126 1656 1242C1656 1126 1565 1035 1449 1035C1333 1035 1242 1126 1242 1242C1242 1126 1151 1035 1035 1035C919 1035 828 1126 828 1242C828 1126 737 1035 621 1035C505 1035 414 1126 414 1242C414 1126 323 1035 207 1035ZM1242 1449C1242 1565 1333 1656 1449 1656C1333 1656 1242 1747 1242 1863C1242 1747 1151 1656 1035 1656C1151 1656 1242 1565 1242 1449ZM414 2070C298 2070 207 2161 207 2277C207 2393 298 2484 414 2484H828C944 2484 1035 2393 1035 2277C1035 2161 944 2070 828 2070ZM621 2070C621 2186 712 2277 828 2277C712 2277 621 2368 621 2484C621 2368 530 2277 414 2277C530 2277 621 2186 621 2070ZM1656 2070C1540 2070 1449 2161 1449 2277C1449 2393 1540 2484 1656 2484H2070C2186 2484 2277 2393 2277 2277C2277 2161 2186 2070 2070 2070ZM1863 2070C1863 2186 1954 2277 2070 2277C1954 2277 1863 2368 1863 2484C1863 2368 1772 2277 1656 2277C1772 2277 1863 2186 1863 2070Z" fill="black" transform="translate(289.8, 3187.8) scale(1, -1)"/>
</svg>