<?xml version="1.0" encoding="UTF-8"?>
<svg xmlns="http://www.w3.org/2000/svg" viewBox="0 0 3063.6 3477.6" width="200" height="200">
  <path d="M0 207C116 207 207 298 207 414H414C414 530 323 621 207 621C323 621 414 712 414 828H207V2070C91 2070 0 2161 0 2277ZM0 207V0H2484V2277C2484 2161 2393 2070 2277 2070V828H2070C2070 712 2161 621 2277 621C2161 621 2070 530 2070 414H2277C2277 298 2368 207 2484 207C2484 91 2393 0 2277 0C2161 0 2070 91 2070 207C2070 91 1979 0 1863 0C1747 0 1656 91 1656 207C1656 91 1565 0 1449 0C1333 0 1242 91 1242 207C1242 323 1333 414 1449 414H1656C1656 530 1565 621 1449 621C1333 621 1242 530 1242 414C1242 530 1151 621 1035 621C919 621 828 530 828 414H1035C1151 414 1242 323 1242 207C1242 91 1151 0 1035 0C919 0 828 91 828 207C828 91 737 0 621 0C505 0 414 91 414 207C414 91 323 0 207 0C91 0 0 91 0 207ZM414 414H828C828 530 737 621 621 621C505 621 414 530 414 414ZM621 621C737 621 828 712 828 828H414C414 712 505 621 621 621ZM1035 621C1151 621 1242 712 1242 828C1242 712 1333 621 1449 621C1565 621 1656 712 1656 828H1449C1333 828 1242 919 1242 1035H1449C1565 1035 1656 1126 1656 1242C1656 1358 1565 1449 1449 1449V1863C1449 1979 1358 2070 1242 2070C1126 2070 1035 1979 1035 1863V1449C919 1449 828 1358 828 1242C828 1126 919 1035 1035 1035H1242C1242 919 1151 828 1035 828H828C828 712 919 621 1035 621ZM1656 414H2070C2070 530 1979 621 1863 621C1747 621 1656 530 1656 414ZM1863 621C1979 621 2070 712 2070 828H1656C1656 712 1747 621 1863 621ZM621 1449C621 1565 712 1656 828 1656C828 1772 737 1863 621 1863C505 1863 414 1772 414 1656C414 1540 505 1449 621 1449ZM1863 1449C1979 1449 2070 1540 2070 1656C2070 1772 1979 1863 1863 1863C1747 1863 1656 1772 1656 1656C1772 1656 1863 1565 1863 1449ZM621 2070H828C828 2186 737 2277 621 2277C737 2277 828 2368 828 2484C828 2368 919 2277 1035 2277C919 2277 828 2186 828 2070H1035C1151 2070 1242 2161 1242 2277C1242 2393 1151 2484 1035 2484C1151 2484 1242 2575 1242 2691C1242 2807 1151 2898 1035 2898C919 2898 828 2807 828 2691H207C91 2691 0 2600 0 2484C0 2368 91 2277 207 2277C323 2277 414 2368 414 2484H621C505 2484 414 2393 414 2277C414 2161 505 2070 621 2070ZM1242 2277C1242 2161 1333 2070 1449 2070H1656C1656 2186 1565 2277 1449 2277C1565 2277 1656 2368 1656 2484C1656 2368 1747 2277 1863 2277C1747 2277 1656 2186 1656 2070H1863C1979 2070 2070 2161 2070 2277C2070 2393 1979 2484 1863 2484H2070C2070 2368 2161 2277 2277 2277C2393 2277 2484 2368 2484 2484C2484 2600 2393 2691 2277 2691H1656C1656 2807 1565 2898 1449 2898C1333 2898 1242 2807 1242 2691C1242 2575 1333 2484 1449 2484C1333 2484 1242 2393 1242 2277Z" fill="black" transform="translate(289.8, 3187.8) scale(1, -1)"/>
</svg>