<?xml version="1.0" encoding="UTF-8"?>
<svg xmlns="http://www.w3.org/2000/svg" viewBox="0 0 2856.6 3477.6" width="200" height="200">
  <path d="M1242 0C1242 116 1333 207 1449 207V414C1333 414 1242 323 1242 207V414C1126 414 1035 323 1035 207C1151 207 1242 116 1242 0ZM1449 207H1656V414C1540 414 1449 323 1449 207ZM207 207H621C621 323 530 414 414 414C298 414 207 505 207 621V1035C91 1035 0 944 0 828V414C0 298 91 207 207 207ZM621 207H828V414C712 414 621 323 621 207ZM828 207H1035V414C919 414 828 323 828 207ZM1656 207H2070C2186 207 2277 298 2277 414V828C2277 944 2186 1035 2070 1035V621C2070 505 1979 414 1863 414C1747 414 1656 323 1656 207ZM1242 828C1242 944 1333 1035 1449 1035C1449 1151 1358 1242 1242 1242V1035C1242 1151 1151 1242 1035 1242V1035C1151 1035 1242 944 1242 828ZM1449 1035H1656C1656 1151 1565 1242 1449 1242ZM2070 1035C2186 1035 2277 1126 2277 1242V1449C2277 1565 2186 1656 2070 1656C1954 1656 1863 1565 1863 1449C1979 1449 2070 1358 2070 1242ZM207 1035V1242C207 1358 298 1449 414 1449C414 1565 323 1656 207 1656C91 1656 0 1565 0 1449V1242C0 1126 91 1035 207 1035ZM621 1242V1035H828C828 1151 737 1242 621 1242ZM828 1242V1035H1035C1035 1151 944 1242 828 1242ZM1656 1242V1035H1863C1863 1151 1772 1242 1656 1242ZM207 1656C207 1772 298 1863 414 1863C298 1863 207 1954 207 2070C207 2186 298 2277 414 2277H1035C1151 2277 1242 2186 1242 2070C1242 2186 1333 2277 1449 2277H1863C1979 2277 2070 2186 2070 2070C2070 1954 1979 1863 1863 1863C1747 1863 1656 1954 1656 2070C1656 1954 1565 1863 1449 1863C1565 1863 1656 1772 1656 1656C1656 1772 1747 1863 1863 1863C1979 1863 2070 1772 2070 1656C2186 1656 2277 1747 2277 1863V2070C2277 2186 2186 2277 2070 2277C2186 2277 2277 2368 2277 2484V2691C2277 2807 2186 2898 2070 2898C1954 2898 1863 2807 1863 2691H2070V2484H1449C1333 2484 1242 2393 1242 2277C1242 2393 1151 2484 1035 2484H207V2691H621C621 2807 530 2898 414 2898H207C91 2898 0 2807 0 2691V2484C0 2368 91 2277 207 2277C91 2277 0 2186 0 2070V1863C0 1747 91 1656 207 1656ZM1242 1449C1242 1565 1333 1656 1449 1656H1035C1151 1656 1242 1565 1242 1449ZM828 1656C828 1772 919 1863 1035 1863C919 1863 828 1954 828 2070C828 1954 737 1863 621 1863C737 1863 828 1772 828 1656Z" fill="black" transform="translate(289.8, 3187.8) scale(1, -1)"/>
</svg>