<?xml version="1.0" encoding="UTF-8"?>
<svg xmlns="http://www.w3.org/2000/svg" viewBox="0 0 3063.6 3477.6" width="200" height="200">
  <path d="M207 0H414C530 0 621 91 621 207V2070H2070V1242H1863C1747 1242 1656 1151 1656 1035V621C1656 505 1747 414 1863 414H2070C2186 414 2277 505 2277 621V2070C2393 2070 2484 2161 2484 2277C2484 2393 2393 2484 2277 2484C2161 2484 2070 2393 2070 2277H621C621 2393 530 2484 414 2484C298 2484 207 2393 207 2277C207 2161 298 2070 414 2070V828H207C91 828 0 737 0 621V207C0 91 91 0 207 0ZM414 207H207V621H414ZM2070 621H1863V1035H2070ZM414 2484C530 2484 621 2575 621 2691H2070C2070 2575 2161 2484 2277 2484C2393 2484 2484 2575 2484 2691C2484 2807 2393 2898 2277 2898H414C298 2898 207 2807 207 2691C207 2575 298 2484 414 2484Z" fill="black" transform="translate(289.8, 3187.8) scale(1, -1)"/>
</svg>