<?xml version="1.0" encoding="UTF-8"?>
<svg xmlns="http://www.w3.org/2000/svg" viewBox="0 0 3477.6 3477.6" width="200" height="200">
  <path d="M828 0H2070C2186 0 2277 91 2277 207C2393 207 2484 298 2484 414C2600 414 2691 505 2691 621C2807 621 2898 712 2898 828V1656C2898 1772 2807 1863 2691 1863C2807 1863 2898 1954 2898 2070V2277C2898 2393 2807 2484 2691 2484C2691 2600 2600 2691 2484 2691C2484 2807 2393 2898 2277 2898H2070C1954 2898 1863 2807 1863 2691V2277H1656C1540 2277 1449 2186 1449 2070C1449 2186 1358 2277 1242 2277H1035V2691C1035 2807 944 2898 828 2898H621C505 2898 414 2807 414 2691C298 2691 207 2600 207 2484C91 2484 0 2393 0 2277V2070C0 1954 91 1863 207 1863C91 1863 0 1772 0 1656V828C0 712 91 621 207 621C207 505 298 414 414 414C414 298 505 207 621 207C621 91 712 0 828 0ZM2070 207H828C712 207 621 298 621 414C621 530 530 621 414 621C298 621 207 712 207 828V1656C323 1656 414 1747 414 1863H621C737 1863 828 1772 828 1656C944 1656 1035 1747 1035 1863V2070H1242C1358 2070 1449 1979 1449 1863C1565 1863 1656 1954 1656 2070H1863V1863C1863 1747 1954 1656 2070 1656C2070 1772 2161 1863 2277 1863H2484C2484 1747 2575 1656 2691 1656V828C2691 712 2600 621 2484 621C2368 621 2277 530 2277 414C2277 298 2186 207 2070 207ZM1242 414C1358 414 1449 505 1449 621C1449 505 1540 414 1656 414C1772 414 1863 505 1863 621V828C1747 828 1656 737 1656 621C1656 737 1565 828 1449 828C1333 828 1242 737 1242 621C1242 737 1151 828 1035 828V621C1035 505 1126 414 1242 414ZM1035 828C1151 828 1242 919 1242 1035C1242 919 1333 828 1449 828C1565 828 1656 919 1656 1035C1656 919 1747 828 1863 828V1035C1863 1151 1772 1242 1656 1242C1540 1242 1449 1151 1449 1035C1449 1151 1358 1242 1242 1242C1126 1242 1035 1151 1035 1035ZM621 1242H1035C1035 1358 944 1449 828 1449C712 1449 621 1358 621 1242ZM1863 1242H2277C2277 1358 2186 1449 2070 1449C1954 1449 1863 1358 1863 1242ZM414 2070C298 2070 207 2161 207 2277C323 2277 414 2368 414 2484C530 2484 621 2575 621 2691H828V1863C828 1979 737 2070 621 2070ZM2070 1863V2691H2277C2277 2575 2368 2484 2484 2484C2484 2368 2575 2277 2691 2277C2691 2161 2600 2070 2484 2070H2277C2161 2070 2070 1979 2070 1863Z" fill="black" transform="translate(289.8, 3187.8) scale(1, -1)"/>
</svg>