<?xml version="1.0" encoding="UTF-8"?>
<svg xmlns="http://www.w3.org/2000/svg" viewBox="0 0 2649.6 3477.6" width="200" height="200">
  <path d="M621 0H1449C1565 0 1656 91 1656 207C1772 207 1863 298 1863 414C1979 414 2070 505 2070 621V1242C2070 1358 1979 1449 1863 1449C1863 1565 1772 1656 1656 1656C1656 1772 1565 1863 1449 1863V2691C1449 2807 1358 2898 1242 2898H828C712 2898 621 2807 621 2691V1863C505 1863 414 1772 414 1656C298 1656 207 1565 207 1449C91 1449 0 1358 0 1242V621C0 505 91 414 207 414C207 298 298 207 414 207C414 91 505 0 621 0ZM828 207H621C621 323 530 414 414 414C414 530 323 621 207 621C323 621 414 712 414 828H207V1242C323 1242 414 1333 414 1449C530 1449 621 1540 621 1656C737 1656 828 1747 828 1863V2277H1242V1863C1242 1747 1333 1656 1449 1656C1449 1540 1540 1449 1656 1449C1656 1333 1747 1242 1863 1242V828C1747 828 1656 737 1656 621C1540 621 1449 530 1449 414C1333 414 1242 323 1242 207H1035C1151 207 1242 298 1242 414C1358 414 1449 505 1449 621C1565 621 1656 712 1656 828H1449C1333 828 1242 737 1242 621C1126 621 1035 530 1035 414C919 414 828 323 828 207ZM414 414C530 414 621 505 621 621C737 621 828 712 828 828H621C505 828 414 737 414 621ZM828 414C944 414 1035 505 1035 621C1151 621 1242 712 1242 828H1035C919 828 828 737 828 621C712 621 621 530 621 414V207C737 207 828 298 828 414ZM828 2484V2691H1242V2484Z" fill="black" transform="translate(289.8, 3187.8) scale(1, -1)"/>
</svg>