<?xml version="1.0" encoding="UTF-8"?>
<svg xmlns="http://www.w3.org/2000/svg" viewBox="0 0 2649.6 3477.6" width="200" height="200">
  <path d="M621 0H1449C1565 0 1656 91 1656 207C1772 207 1863 298 1863 414C1979 414 2070 505 2070 621V1242C2070 1358 1979 1449 1863 1449C1863 1565 1772 1656 1656 1656C1656 1772 1565 1863 1449 1863V2691C1449 2807 1358 2898 1242 2898H828C712 2898 621 2807 621 2691V1863C505 1863 414 1772 414 1656C298 1656 207 1565 207 1449C91 1449 0 1358 0 1242V621C0 505 91 414 207 414C207 298 298 207 414 207C414 91 505 0 621 0ZM1449 207H621C621 323 530 414 414 414C414 530 323 621 207 621V1242C323 1242 414 1333 414 1449C530 1449 621 1540 621 1656C737 1656 828 1747 828 1863V2277H1242V1863C1242 1747 1333 1656 1449 1656C1449 1540 1540 1449 1656 1449C1656 1333 1747 1242 1863 1242V621C1747 621 1656 530 1656 414C1540 414 1449 323 1449 207ZM621 828H828C712 828 621 919 621 1035C621 1151 712 1242 828 1242H621C505 1242 414 1151 414 1035C414 919 505 828 621 828ZM1035 828C1035 944 1126 1035 1242 1035C1126 1035 1035 1126 1035 1242C1035 1126 944 1035 828 1035C944 1035 1035 944 1035 828ZM1242 828H1449C1565 828 1656 919 1656 1035C1656 1151 1565 1242 1449 1242H1242C1358 1242 1449 1151 1449 1035C1449 919 1358 828 1242 828ZM828 2484V2691H1242V2484Z" fill="black" transform="translate(289.8, 3187.8) scale(1, -1)"/>
</svg>