<?xml version="1.0" encoding="UTF-8"?>
<svg xmlns="http://www.w3.org/2000/svg" viewBox="0 0 3063.6 3477.6" width="200" height="200">
  <path d="M828 0H2070C2186 0 2277 91 2277 207V2484C2393 2484 2484 2575 2484 2691C2484 2807 2393 2898 2277 2898C2161 2898 2070 2807 2070 2691C2070 2807 1979 2898 1863 2898C1747 2898 1656 2807 1656 2691C1656 2807 1565 2898 1449 2898C1333 2898 1242 2807 1242 2691C1242 2807 1151 2898 1035 2898C919 2898 828 2807 828 2691C828 2807 737 2898 621 2898C505 2898 414 2807 414 2691C414 2575 505 2484 621 2484V2070H207C91 2070 0 1979 0 1863C0 1747 91 1656 207 1656C323 1656 414 1747 414 1863H621V414H414C414 530 323 621 207 621C91 621 0 530 0 414C0 298 91 207 207 207H621C621 91 712 0 828 0ZM1035 414C919 414 828 505 828 621V1863C944 1863 1035 1772 1035 1656ZM1242 414V1656C1242 1772 1333 1863 1449 1863H1656V621C1656 505 1565 414 1449 414ZM1863 414V1656C1863 1772 1954 1863 2070 1863V621C2070 505 1979 414 1863 414ZM207 621C323 621 414 712 414 828V1449C414 1565 323 1656 207 1656C91 1656 0 1565 0 1449C0 1333 91 1242 207 1242V1035C91 1035 0 944 0 828C0 712 91 621 207 621ZM1035 2070C919 2070 828 2161 828 2277V2484C944 2484 1035 2575 1035 2691C1035 2575 1126 2484 1242 2484C1358 2484 1449 2575 1449 2691C1449 2575 1540 2484 1656 2484C1772 2484 1863 2575 1863 2691C1863 2575 1954 2484 2070 2484V2277C2070 2161 1979 2070 1863 2070Z" fill="black" transform="translate(289.8, 3187.8) scale(1, -1)"/>
</svg>