<?xml version="1.0" encoding="UTF-8"?>
<svg xmlns="http://www.w3.org/2000/svg" viewBox="0 0 3063.6 3477.6" width="200" height="200">
  <path d="M207 0H621C737 0 828 91 828 207V828C828 944 919 1035 1035 1035C1151 1035 1242 1126 1242 1242C1242 1126 1333 1035 1449 1035C1565 1035 1656 944 1656 828V207C1656 91 1747 0 1863 0H2277C2393 0 2484 91 2484 207C2368 207 2277 298 2277 414V828C2277 944 2186 1035 2070 1035H1863C1747 1035 1656 1126 1656 1242C1656 1358 1565 1449 1449 1449C1449 1565 1358 1656 1242 1656C1126 1656 1035 1565 1035 1449C919 1449 828 1358 828 1242C828 1126 737 1035 621 1035H414C298 1035 207 944 207 828V414C207 298 116 207 0 207C0 91 91 0 207 0ZM414 207V828H621V207ZM2070 207H1863V828H2070ZM1449 1449C1565 1449 1656 1540 1656 1656C1772 1656 1863 1747 1863 1863C1979 1863 2070 1954 2070 2070C2186 2070 2277 2161 2277 2277C2393 2277 2484 2368 2484 2484V2691C2484 2807 2393 2898 2277 2898V2484C2161 2484 2070 2393 2070 2277C1954 2277 1863 2186 1863 2070C1747 2070 1656 1979 1656 1863C1540 1863 1449 1772 1449 1656ZM1035 1449V1656C1035 1772 944 1863 828 1863C828 1979 737 2070 621 2070C621 2186 530 2277 414 2277C414 2393 323 2484 207 2484V2898C91 2898 0 2807 0 2691V2484C0 2368 91 2277 207 2277C207 2161 298 2070 414 2070C414 1954 505 1863 621 1863C621 1747 712 1656 828 1656C828 1540 919 1449 1035 1449Z" fill="black" transform="translate(289.8, 3187.8) scale(1, -1)"/>
</svg>