<?xml version="1.0" encoding="UTF-8"?>
<svg xmlns="http://www.w3.org/2000/svg" viewBox="0 0 2856.6 3477.6" width="200" height="200">
  <path d="M621 0C737 0 828 91 828 207C944 207 1035 298 1035 414C1151 414 1242 505 1242 621C1358 621 1449 712 1449 828V1035H1656C1772 1035 1863 1126 1863 1242V1449C1863 1565 1772 1656 1656 1656H1242C1358 1656 1449 1747 1449 1863H2070C2186 1863 2277 1954 2277 2070V2691C2277 2807 2186 2898 2070 2898H828C712 2898 621 2807 621 2691V2277C505 2277 414 2186 414 2070H207C91 2070 0 1979 0 1863V1449C0 1333 91 1242 207 1242H621C505 1242 414 1151 414 1035C414 919 505 828 621 828C505 828 414 737 414 621V207C414 91 505 0 621 0ZM621 207V621C737 621 828 712 828 828C828 944 737 1035 621 1035C737 1035 828 1126 828 1242C828 1358 737 1449 621 1449H207V1863H414C530 1863 621 1954 621 2070C737 2070 828 2161 828 2277V2691H2070V2070H1449C1333 2070 1242 1979 1242 1863C1126 1863 1035 1772 1035 1656C1035 1540 1126 1449 1242 1449H1656V1242H1449C1333 1242 1242 1151 1242 1035V828C1126 828 1035 737 1035 621C919 621 828 530 828 414C712 414 621 323 621 207Z" fill="black" transform="translate(289.8, 3187.8) scale(1, -1)"/>
</svg>