<?xml version="1.0" encoding="UTF-8"?>
<svg xmlns="http://www.w3.org/2000/svg" viewBox="0 0 4719.6 3684.6" width="200" height="200">
  <path d="M207 0H621C737 0 828 91 828 207C828 91 919 0 1035 0H3519C3635 0 3726 91 3726 207C3842 207 3933 298 3933 414C3933 530 3842 621 3726 621C3842 621 3933 712 3933 828C3933 944 3842 1035 3726 1035C3842 1035 3933 1126 3933 1242C3933 1358 3842 1449 3726 1449C3842 1449 3933 1540 3933 1656C3933 1772 3842 1863 3726 1863C3842 1863 3933 1954 3933 2070C3933 2186 3842 2277 3726 2277C3842 2277 3933 2368 3933 2484C3933 2600 3842 2691 3726 2691C3726 2807 3635 2898 3519 2898H1035C919 2898 828 2807 828 2691C828 2807 737 2898 621 2898H207C91 2898 0 2807 0 2691V207C0 91 91 0 207 0ZM621 207H207V2691H621C621 2575 712 2484 828 2484C944 2484 1035 2575 1035 2691H3519C3519 2575 3610 2484 3726 2484C3610 2484 3519 2393 3519 2277C3519 2161 3610 2070 3726 2070C3610 2070 3519 1979 3519 1863C3519 1747 3610 1656 3726 1656C3610 1656 3519 1565 3519 1449C3519 1333 3610 1242 3726 1242C3610 1242 3519 1151 3519 1035C3519 919 3610 828 3726 828C3610 828 3519 737 3519 621C3519 505 3610 414 3726 414C3610 414 3519 323 3519 207H1035C1035 323 944 414 828 414C712 414 621 323 621 207ZM828 414C944 414 1035 505 1035 621C1035 737 944 828 828 828C712 828 621 737 621 621C621 505 712 414 828 414ZM828 828C944 828 1035 919 1035 1035C1035 1151 944 1242 828 1242C712 1242 621 1151 621 1035C621 919 712 828 828 828ZM828 1242C944 1242 1035 1333 1035 1449C1035 1565 944 1656 828 1656C712 1656 621 1565 621 1449C621 1333 712 1242 828 1242ZM828 1656C944 1656 1035 1747 1035 1863C1035 1979 944 2070 828 2070C712 2070 621 1979 621 1863C621 1747 712 1656 828 1656ZM1242 1449H3105C3221 1449 3312 1540 3312 1656H1449C1333 1656 1242 1565 1242 1449ZM828 2070C944 2070 1035 2161 1035 2277C1035 2393 944 2484 828 2484C712 2484 621 2393 621 2277C621 2161 712 2070 828 2070ZM1242 1863H3105C3221 1863 3312 1954 3312 2070H1449C1333 2070 1242 1979 1242 1863ZM1242 2277H3105C3221 2277 3312 2368 3312 2484H1449C1333 2484 1242 2393 1242 2277Z" fill="black" transform="translate(393.3, 3291.3) scale(1, -1)"/>
</svg>