<?xml version="1.0" encoding="UTF-8"?>
<svg xmlns="http://www.w3.org/2000/svg" viewBox="0 0 3063.6 3477.6" width="200" height="200">
  <path d="M1035 0H1449C1565 0 1656 91 1656 207C1772 207 1863 298 1863 414H1656C1540 414 1449 323 1449 207V828C1565 828 1656 919 1656 1035C1656 919 1747 828 1863 828C1979 828 2070 919 2070 1035C2070 919 2161 828 2277 828C2393 828 2484 919 2484 1035V1242C2368 1242 2277 1151 2277 1035C2277 1151 2186 1242 2070 1242C1954 1242 1863 1151 1863 1035C1863 1151 1772 1242 1656 1242C1540 1242 1449 1151 1449 1035C1449 1151 1358 1242 1242 1242C1126 1242 1035 1151 1035 1035C1035 1151 944 1242 828 1242C712 1242 621 1151 621 1035C621 1151 530 1242 414 1242C298 1242 207 1151 207 1035C207 1151 116 1242 0 1242V1035C0 919 91 828 207 828C323 828 414 919 414 1035C414 919 505 828 621 828C737 828 828 919 828 1035C828 919 919 828 1035 828V207C1035 323 944 414 828 414H621C621 298 712 207 828 207C828 91 919 0 1035 0ZM414 1242C530 1242 621 1333 621 1449C621 1333 712 1242 828 1242C944 1242 1035 1333 1035 1449C1035 1333 1126 1242 1242 1242C1358 1242 1449 1333 1449 1449C1449 1333 1540 1242 1656 1242C1772 1242 1863 1333 1863 1449C1863 1333 1954 1242 2070 1242C2186 1242 2277 1333 2277 1449V1656C2161 1656 2070 1565 2070 1449C2070 1565 1979 1656 1863 1656C1747 1656 1656 1565 1656 1449C1656 1565 1565 1656 1449 1656C1333 1656 1242 1565 1242 1449C1242 1565 1151 1656 1035 1656C919 1656 828 1565 828 1449C828 1565 737 1656 621 1656C505 1656 414 1565 414 1449C414 1565 323 1656 207 1656V1449C207 1333 298 1242 414 1242ZM621 1656C737 1656 828 1747 828 1863C828 1747 919 1656 1035 1656C1151 1656 1242 1747 1242 1863C1242 1747 1333 1656 1449 1656C1565 1656 1656 1747 1656 1863C1656 1747 1747 1656 1863 1656C1979 1656 2070 1747 2070 1863V2070C1954 2070 1863 1979 1863 1863C1863 1979 1772 2070 1656 2070C1540 2070 1449 1979 1449 1863C1449 1979 1358 2070 1242 2070C1126 2070 1035 1979 1035 1863C1035 1979 944 2070 828 2070C712 2070 621 1979 621 1863C621 1979 530 2070 414 2070V1863C414 1747 505 1656 621 1656ZM828 2070C944 2070 1035 2161 1035 2277C1035 2161 1126 2070 1242 2070C1358 2070 1449 2161 1449 2277C1449 2161 1540 2070 1656 2070C1772 2070 1863 2161 1863 2277V2484C1747 2484 1656 2393 1656 2277C1656 2393 1565 2484 1449 2484C1333 2484 1242 2393 1242 2277C1242 2393 1151 2484 1035 2484C919 2484 828 2393 828 2277C828 2393 737 2484 621 2484V2277C621 2161 712 2070 828 2070ZM1035 2691C1035 2575 1126 2484 1242 2484C1358 2484 1449 2575 1449 2691C1449 2575 1540 2484 1656 2484V2691C1656 2807 1565 2898 1449 2898C1333 2898 1242 2807 1242 2691C1242 2807 1151 2898 1035 2898C919 2898 828 2807 828 2691V2484C944 2484 1035 2575 1035 2691Z" fill="black" transform="translate(289.8, 3187.8) scale(1, -1)"/>
</svg>