<?xml version="1.0" encoding="UTF-8"?>
<svg xmlns="http://www.w3.org/2000/svg" viewBox="0 0 2649.6 3477.6" width="200" height="200">
  <path d="M828 0H1242C1358 0 1449 91 1449 207V1242C1565 1242 1656 1333 1656 1449V1656C1540 1656 1449 1565 1449 1449C1449 1565 1358 1656 1242 1656C1126 1656 1035 1565 1035 1449C1035 1565 944 1656 828 1656C712 1656 621 1565 621 1449C621 1565 530 1656 414 1656V1449C414 1333 505 1242 621 1242V207C621 91 712 0 828 0ZM1035 207C919 207 828 298 828 414V1449C828 1333 919 1242 1035 1242C1151 1242 1242 1333 1242 1449V414C1242 298 1151 207 1035 207ZM207 1656C323 1656 414 1747 414 1863C414 1747 505 1656 621 1656C737 1656 828 1747 828 1863C828 1747 919 1656 1035 1656C1151 1656 1242 1747 1242 1863C1242 1747 1333 1656 1449 1656C1565 1656 1656 1747 1656 1863C1656 1747 1747 1656 1863 1656C1979 1656 2070 1747 2070 1863V2070C1954 2070 1863 1979 1863 1863C1863 1979 1772 2070 1656 2070C1540 2070 1449 1979 1449 1863C1449 1979 1358 2070 1242 2070C1126 2070 1035 1979 1035 1863C1035 1979 944 2070 828 2070C712 2070 621 1979 621 1863C621 1979 530 2070 414 2070C298 2070 207 1979 207 1863C207 1979 116 2070 0 2070V1863C0 1747 91 1656 207 1656ZM621 2070C737 2070 828 2161 828 2277C828 2161 919 2070 1035 2070C1151 2070 1242 2161 1242 2277C1242 2161 1333 2070 1449 2070C1565 2070 1656 2161 1656 2277V2484C1540 2484 1449 2393 1449 2277C1449 2393 1358 2484 1242 2484C1126 2484 1035 2393 1035 2277C1035 2393 944 2484 828 2484C712 2484 621 2393 621 2277C621 2393 530 2484 414 2484V2277C414 2161 505 2070 621 2070ZM1035 2484C1151 2484 1242 2575 1242 2691V2898C1126 2898 1035 2807 1035 2691C1035 2807 944 2898 828 2898V2691C828 2575 919 2484 1035 2484Z" fill="black" transform="translate(289.8, 3187.8) scale(1, -1)"/>
</svg>