<?xml version="1.0" encoding="UTF-8"?>
<svg xmlns="http://www.w3.org/2000/svg" viewBox="0 0 2856.6 3477.6" width="200" height="200">
  <path d="M207 0C323 0 414 91 414 207C414 91 505 0 621 0C737 0 828 91 828 207C828 91 919 0 1035 0C1151 0 1242 91 1242 207C1242 91 1333 0 1449 0C1565 0 1656 91 1656 207C1656 91 1747 0 1863 0C1979 0 2070 91 2070 207C2070 91 2161 0 2277 0V207C2277 323 2186 414 2070 414C1954 414 1863 323 1863 207C1863 323 1772 414 1656 414C1540 414 1449 323 1449 207C1449 323 1358 414 1242 414C1126 414 1035 323 1035 207C1035 323 944 414 828 414C712 414 621 323 621 207C621 323 530 414 414 414C298 414 207 323 207 207C207 323 116 414 0 414V207C0 91 91 0 207 0ZM207 621C323 621 414 712 414 828C414 712 505 621 621 621C737 621 828 712 828 828C828 712 919 621 1035 621C1151 621 1242 712 1242 828C1242 712 1333 621 1449 621C1565 621 1656 712 1656 828C1656 712 1747 621 1863 621V828C1863 944 1772 1035 1656 1035C1540 1035 1449 944 1449 828C1449 944 1358 1035 1242 1035C1126 1035 1035 944 1035 828C1035 944 944 1035 828 1035C712 1035 621 944 621 828C621 944 530 1035 414 1035C298 1035 207 944 207 828C207 944 116 1035 0 1035V828C0 712 91 621 207 621ZM207 1242C323 1242 414 1333 414 1449C414 1333 505 1242 621 1242C737 1242 828 1333 828 1449C828 1333 919 1242 1035 1242C1151 1242 1242 1333 1242 1449C1242 1333 1333 1242 1449 1242C1565 1242 1656 1333 1656 1449C1656 1333 1747 1242 1863 1242C1979 1242 2070 1333 2070 1449C2070 1333 2161 1242 2277 1242V1449C2277 1565 2186 1656 2070 1656C1954 1656 1863 1565 1863 1449C1863 1565 1772 1656 1656 1656C1540 1656 1449 1565 1449 1449C1449 1565 1358 1656 1242 1656C1126 1656 1035 1565 1035 1449C1035 1565 944 1656 828 1656C712 1656 621 1565 621 1449C621 1565 530 1656 414 1656C298 1656 207 1565 207 1449C207 1565 116 1656 0 1656V1449C0 1333 91 1242 207 1242ZM621 1863C737 1863 828 1954 828 2070C828 1954 919 1863 1035 1863C1151 1863 1242 1954 1242 2070C1242 1954 1333 1863 1449 1863C1565 1863 1656 1954 1656 2070C1656 1954 1747 1863 1863 1863C1979 1863 2070 1954 2070 2070C2070 1954 2161 1863 2277 1863V2070C2277 2186 2186 2277 2070 2277C1954 2277 1863 2186 1863 2070C1863 2186 1772 2277 1656 2277C1540 2277 1449 2186 1449 2070C1449 2186 1358 2277 1242 2277C1126 2277 1035 2186 1035 2070C1035 2186 944 2277 828 2277C712 2277 621 2186 621 2070C621 2186 530 2277 414 2277V2070C414 1954 505 1863 621 1863ZM207 2484C323 2484 414 2575 414 2691C414 2575 505 2484 621 2484C737 2484 828 2575 828 2691C828 2575 919 2484 1035 2484C1151 2484 1242 2575 1242 2691C1242 2575 1333 2484 1449 2484C1565 2484 1656 2575 1656 2691C1656 2575 1747 2484 1863 2484C1979 2484 2070 2575 2070 2691C2070 2575 2161 2484 2277 2484V2691C2277 2807 2186 2898 2070 2898C1954 2898 1863 2807 1863 2691C1863 2807 1772 2898 1656 2898C1540 2898 1449 2807 1449 2691C1449 2807 1358 2898 1242 2898C1126 2898 1035 2807 1035 2691C1035 2807 944 2898 828 2898C712 2898 621 2807 621 2691C621 2807 530 2898 414 2898C298 2898 207 2807 207 2691C207 2807 116 2898 0 2898V2691C0 2575 91 2484 207 2484Z" fill="black" transform="translate(289.8, 3187.8) scale(1, -1)"/>
</svg>