<?xml version="1.0" encoding="UTF-8"?>
<svg xmlns="http://www.w3.org/2000/svg" viewBox="0 0 3270.6 3477.6" width="200" height="200">
  <path d="M2277 0H2484C2600 0 2691 91 2691 207V1656C2691 1772 2600 1863 2484 1863C2484 1979 2393 2070 2277 2070H2070C2070 2186 1979 2277 1863 2277H1656C1656 2393 1565 2484 1449 2484H1035C1035 2600 944 2691 828 2691H207C91 2691 0 2782 0 2898V2691C0 2575 91 2484 207 2484V2277C207 2161 298 2070 414 2070C530 2070 621 2161 621 2277C505 2277 414 2368 414 2484H828C828 2368 919 2277 1035 2277H1449C1449 2161 1540 2070 1656 2070H1863C1863 1954 1954 1863 2070 1863H2277C2277 1747 2368 1656 2484 1656V621C2484 505 2393 414 2277 414V828C2277 944 2186 1035 2070 1035V414C2070 298 2161 207 2277 207H2484C2484 91 2393 0 2277 0ZM1863 621C1979 621 2070 712 2070 828C1954 828 1863 919 1863 1035C1863 1151 1772 1242 1656 1242V828C1656 712 1747 621 1863 621ZM1449 828C1565 828 1656 919 1656 1035C1540 1035 1449 1126 1449 1242V1449C1449 1565 1358 1656 1242 1656V1035C1242 919 1333 828 1449 828ZM1035 1242C1151 1242 1242 1333 1242 1449C1126 1449 1035 1540 1035 1656V1863C1035 1979 944 2070 828 2070C828 1954 737 1863 621 1863C621 1979 530 2070 414 2070V1863C414 1747 505 1656 621 1656C737 1656 828 1747 828 1863V1449C828 1333 919 1242 1035 1242Z" fill="black" transform="translate(289.8, 3187.8) scale(1, -1)"/>
</svg>