<?xml version="1.0" encoding="UTF-8"?>
<svg xmlns="http://www.w3.org/2000/svg" viewBox="0 0 3270.6 3477.6" width="200" height="200">
  <path d="M207 0H414C298 0 207 91 207 207H414C530 207 621 298 621 414V1035C505 1035 414 944 414 828V414C298 414 207 505 207 621V1656C323 1656 414 1747 414 1863H621C737 1863 828 1954 828 2070H1035C1151 2070 1242 2161 1242 2277H1656C1772 2277 1863 2368 1863 2484H2277C2277 2368 2186 2277 2070 2277C2070 2161 2161 2070 2277 2070C2393 2070 2484 2161 2484 2277V2484C2600 2484 2691 2575 2691 2691V2898C2691 2782 2600 2691 2484 2691H1863C1747 2691 1656 2600 1656 2484H1242C1126 2484 1035 2393 1035 2277H828C712 2277 621 2186 621 2070H414C298 2070 207 1979 207 1863C91 1863 0 1772 0 1656V207C0 91 91 0 207 0ZM621 828C621 712 712 621 828 621C944 621 1035 712 1035 828V1242C919 1242 828 1151 828 1035C828 919 737 828 621 828ZM1035 1035C1035 919 1126 828 1242 828C1358 828 1449 919 1449 1035V1656C1333 1656 1242 1565 1242 1449V1242C1242 1126 1151 1035 1035 1035ZM1449 1449C1449 1333 1540 1242 1656 1242C1772 1242 1863 1333 1863 1449V1863C1863 1747 1954 1656 2070 1656C2186 1656 2277 1747 2277 1863V2070C2161 2070 2070 1979 2070 1863C1954 1863 1863 1954 1863 2070C1747 2070 1656 1979 1656 1863V1656C1656 1540 1565 1449 1449 1449Z" fill="black" transform="translate(289.8, 3187.8) scale(1, -1)"/>
</svg>